<svg width="216" height="62" viewBox="0 0 216 62" fill="none" xmlns="http://www.w3.org/2000/svg">
<path d="M21.4688 40.625V0H30.5312V48H22.375L21.4688 40.625ZM0.09375 31.5V30.8438C0.09375 28.2604 0.385417 25.9167 0.96875 23.8125C1.55208 21.6875 2.40625 19.8646 3.53125 18.3438C4.65625 16.8229 6.04167 15.6458 7.6875 14.8125C9.33333 13.9792 11.2083 13.5625 13.3125 13.5625C15.2917 13.5625 17.0208 13.9792 18.5 14.8125C20 15.6458 21.2708 16.8333 22.3125 18.375C23.375 19.8958 24.2292 21.6979 24.875 23.7812C25.5208 25.8438 25.9896 28.1042 26.2812 30.5625V32C25.9896 34.3542 25.5208 36.5417 24.875 38.5625C24.2292 40.5833 23.375 42.3542 22.3125 43.875C21.2708 45.375 20 46.5417 18.5 47.375C17 48.2083 15.25 48.625 13.25 48.625C11.1458 48.625 9.27083 48.1979 7.625 47.3438C6 46.4896 4.625 45.2917 3.5 43.75C2.39583 42.2083 1.55208 40.3958 0.96875 38.3125C0.385417 36.2292 0.09375 33.9583 0.09375 31.5ZM9.09375 30.8438V31.5C9.09375 32.8958 9.19792 34.1979 9.40625 35.4062C9.63542 36.6146 10 37.6875 10.5 38.625C11.0208 39.5417 11.6875 40.2604 12.5 40.7812C13.3333 41.2812 14.3438 41.5312 15.5312 41.5312C17.0729 41.5312 18.3438 41.1875 19.3438 40.5C20.3438 39.7917 21.1042 38.8229 21.625 37.5938C22.1667 36.3646 22.4792 34.9479 22.5625 33.3438V29.25C22.5 27.9375 22.3125 26.7604 22 25.7188C21.7083 24.6562 21.2708 23.75 20.6875 23C20.125 22.25 19.4167 21.6667 18.5625 21.25C17.7292 20.8333 16.7396 20.625 15.5938 20.625C14.4271 20.625 13.4271 20.8958 12.5938 21.4375C11.7604 21.9583 11.0833 22.6771 10.5625 23.5938C10.0625 24.5104 9.6875 25.5938 9.4375 26.8438C9.20833 28.0729 9.09375 29.4062 9.09375 30.8438ZM52.2925 40.375V25.3125C52.2925 24.2292 52.1154 23.3021 51.7612 22.5312C51.4071 21.7396 50.855 21.125 50.105 20.6875C49.3758 20.25 48.4279 20.0312 47.2612 20.0312C46.2612 20.0312 45.3967 20.2083 44.6675 20.5625C43.9383 20.8958 43.3758 21.3854 42.98 22.0312C42.5842 22.6562 42.3862 23.3958 42.3862 24.25H33.3862C33.3862 22.8125 33.7196 21.4479 34.3862 20.1562C35.0529 18.8646 36.0217 17.7292 37.2925 16.75C38.5633 15.75 40.0737 14.9688 41.8237 14.4062C43.5946 13.8438 45.5737 13.5625 47.7612 13.5625C50.3862 13.5625 52.7196 14 54.7612 14.875C56.8029 15.75 58.4071 17.0625 59.5737 18.8125C60.7612 20.5625 61.355 22.75 61.355 25.375V39.8438C61.355 41.6979 61.4696 43.2188 61.6987 44.4062C61.9279 45.5729 62.2612 46.5938 62.6987 47.4688V48H53.605C53.1675 47.0833 52.8342 45.9375 52.605 44.5625C52.3967 43.1667 52.2925 41.7708 52.2925 40.375ZM53.48 27.4062L53.5425 32.5H48.5112C47.3237 32.5 46.2925 32.6354 45.4175 32.9062C44.5425 33.1771 43.8237 33.5625 43.2612 34.0625C42.6987 34.5417 42.2821 35.1042 42.0112 35.75C41.7612 36.3958 41.6362 37.1042 41.6362 37.875C41.6362 38.6458 41.8133 39.3438 42.1675 39.9688C42.5217 40.5729 43.0321 41.0521 43.6987 41.4062C44.3654 41.7396 45.1467 41.9062 46.0425 41.9062C47.3967 41.9062 48.5737 41.6354 49.5737 41.0938C50.5737 40.5521 51.3446 39.8854 51.8862 39.0938C52.4487 38.3021 52.7404 37.5521 52.7612 36.8438L55.1362 40.6562C54.8029 41.5104 54.3446 42.3958 53.7612 43.3125C53.1987 44.2292 52.48 45.0938 51.605 45.9062C50.73 46.6979 49.6779 47.3542 48.4487 47.875C47.2196 48.375 45.7612 48.625 44.0737 48.625C41.9279 48.625 39.98 48.1979 38.23 47.3438C36.5008 46.4688 35.1258 45.2708 34.105 43.75C33.105 42.2083 32.605 40.4583 32.605 38.5C32.605 36.7292 32.9383 35.1562 33.605 33.7812C34.2717 32.4062 35.2508 31.25 36.5425 30.3125C37.855 29.3542 39.4904 28.6354 41.4487 28.1562C43.4071 27.6562 45.6779 27.4062 48.2612 27.4062H53.48ZM83.0537 38.6562C83.0537 38.0104 82.8662 37.4271 82.4912 36.9062C82.1162 36.3854 81.4183 35.9062 80.3975 35.4688C79.3975 35.0104 77.9496 34.5938 76.0537 34.2188C74.3454 33.8438 72.7517 33.375 71.2725 32.8125C69.8142 32.2292 68.5433 31.5312 67.46 30.7188C66.3975 29.9062 65.5642 28.9479 64.96 27.8438C64.3558 26.7188 64.0537 25.4375 64.0537 24C64.0537 22.5833 64.3558 21.25 64.96 20C65.585 18.75 66.4704 17.6458 67.6162 16.6875C68.7829 15.7083 70.1996 14.9479 71.8662 14.4062C73.5537 13.8438 75.4496 13.5625 77.5537 13.5625C80.4912 13.5625 83.0121 14.0312 85.1162 14.9688C87.2412 15.9062 88.8662 17.1979 89.9912 18.8438C91.1371 20.4688 91.71 22.3229 91.71 24.4062H82.71C82.71 23.5312 82.5225 22.75 82.1475 22.0625C81.7933 21.3542 81.2308 20.8021 80.46 20.4062C79.71 19.9896 78.7308 19.7812 77.5225 19.7812C76.5225 19.7812 75.6579 19.9583 74.9287 20.3125C74.1996 20.6458 73.6371 21.1042 73.2412 21.6875C72.8662 22.25 72.6787 22.875 72.6787 23.5625C72.6787 24.0833 72.7829 24.5521 72.9912 24.9688C73.2204 25.3646 73.585 25.7292 74.085 26.0625C74.585 26.3958 75.2308 26.7083 76.0225 27C76.835 27.2708 77.835 27.5208 79.0225 27.75C81.46 28.25 83.6371 28.9062 85.5537 29.7188C87.4704 30.5104 88.9912 31.5938 90.1162 32.9688C91.2412 34.3229 91.8037 36.1042 91.8037 38.3125C91.8037 39.8125 91.4704 41.1875 90.8037 42.4375C90.1371 43.6875 89.1787 44.7812 87.9287 45.7188C86.6787 46.6354 85.1787 47.3542 83.4287 47.875C81.6996 48.375 79.7517 48.625 77.585 48.625C74.4392 48.625 71.7725 48.0625 69.585 46.9375C67.4183 45.8125 65.7725 44.3854 64.6475 42.6562C63.5433 40.9062 62.9912 39.1146 62.9912 37.2812H71.5225C71.5642 38.5104 71.8767 39.5 72.46 40.25C73.0642 41 73.8246 41.5417 74.7412 41.875C75.6787 42.2083 76.6892 42.375 77.7725 42.375C78.9392 42.375 79.9079 42.2188 80.6787 41.9062C81.4496 41.5729 82.0329 41.1354 82.4287 40.5938C82.8454 40.0312 83.0537 39.3854 83.0537 38.6562ZM102.909 0V48H93.9088V0H102.909ZM101.628 29.9062H99.1588C99.1796 27.5521 99.4921 25.3854 100.096 23.4062C100.7 21.4062 101.565 19.6771 102.69 18.2188C103.815 16.7396 105.159 15.5938 106.721 14.7812C108.305 13.9688 110.055 13.5625 111.971 13.5625C113.638 13.5625 115.148 13.8021 116.503 14.2812C117.878 14.7396 119.055 15.4896 120.034 16.5312C121.034 17.5521 121.805 18.8958 122.346 20.5625C122.888 22.2292 123.159 24.25 123.159 26.625V48H114.096V26.5625C114.096 25.0625 113.878 23.8854 113.44 23.0312C113.023 22.1562 112.409 21.5417 111.596 21.1875C110.805 20.8125 109.825 20.625 108.659 20.625C107.367 20.625 106.263 20.8646 105.346 21.3438C104.45 21.8229 103.732 22.4896 103.19 23.3438C102.648 24.1771 102.253 25.1562 102.003 26.2812C101.753 27.4062 101.628 28.6146 101.628 29.9062ZM147.889 14.1875H156.045V46.875C156.045 49.9583 155.357 52.5729 153.982 54.7188C152.628 56.8854 150.732 58.5208 148.295 59.625C145.857 60.75 143.024 61.3125 139.795 61.3125C138.378 61.3125 136.878 61.125 135.295 60.75C133.732 60.375 132.232 59.7917 130.795 59C129.378 58.2083 128.191 57.2083 127.232 56L131.201 50.6875C132.243 51.8958 133.451 52.8333 134.826 53.5C136.201 54.1875 137.722 54.5312 139.389 54.5312C141.014 54.5312 142.389 54.2292 143.514 53.625C144.639 53.0417 145.503 52.1771 146.107 51.0312C146.712 49.9062 147.014 48.5417 147.014 46.9375V22L147.889 14.1875ZM125.139 31.5V30.8438C125.139 28.2604 125.451 25.9167 126.076 23.8125C126.722 21.6875 127.628 19.8646 128.795 18.3438C129.982 16.8229 131.42 15.6458 133.107 14.8125C134.795 13.9792 136.701 13.5625 138.826 13.5625C141.076 13.5625 142.962 13.9792 144.482 14.8125C146.003 15.6458 147.253 16.8333 148.232 18.375C149.212 19.8958 149.972 21.6979 150.514 23.7812C151.076 25.8438 151.514 28.1042 151.826 30.5625V32C151.514 34.3542 151.045 36.5417 150.42 38.5625C149.795 40.5833 148.972 42.3542 147.951 43.875C146.93 45.375 145.66 46.5417 144.139 47.375C142.639 48.2083 140.847 48.625 138.764 48.625C136.68 48.625 134.795 48.1979 133.107 47.3438C131.441 46.4896 130.014 45.2917 128.826 43.75C127.639 42.2083 126.722 40.3958 126.076 38.3125C125.451 36.2292 125.139 33.9583 125.139 31.5ZM134.139 30.8438V31.5C134.139 32.8958 134.274 34.1979 134.545 35.4062C134.816 36.6146 135.232 37.6875 135.795 38.625C136.378 39.5417 137.097 40.2604 137.951 40.7812C138.826 41.2812 139.857 41.5312 141.045 41.5312C142.691 41.5312 144.035 41.1875 145.076 40.5C146.118 39.7917 146.899 38.8229 147.42 37.5938C147.941 36.3646 148.243 34.9479 148.326 33.3438V29.25C148.285 27.9375 148.107 26.7604 147.795 25.7188C147.482 24.6562 147.045 23.75 146.482 23C145.92 22.25 145.191 21.6667 144.295 21.25C143.399 20.8333 142.337 20.625 141.107 20.625C139.92 20.625 138.889 20.8958 138.014 21.4375C137.16 21.9583 136.441 22.6771 135.857 23.5938C135.295 24.5104 134.868 25.5938 134.576 26.8438C134.285 28.0729 134.139 29.4062 134.139 30.8438ZM158.087 31.4375V30.7812C158.087 28.3021 158.442 26.0208 159.15 23.9375C159.858 21.8333 160.89 20.0104 162.244 18.4688C163.598 16.9271 165.265 15.7292 167.244 14.875C169.223 14 171.494 13.5625 174.056 13.5625C176.619 13.5625 178.9 14 180.9 14.875C182.9 15.7292 184.577 16.9271 185.931 18.4688C187.306 20.0104 188.348 21.8333 189.056 23.9375C189.765 26.0208 190.119 28.3021 190.119 30.7812V31.4375C190.119 33.8958 189.765 36.1771 189.056 38.2812C188.348 40.3646 187.306 42.1875 185.931 43.75C184.577 45.2917 182.91 46.4896 180.931 47.3438C178.952 48.1979 176.681 48.625 174.119 48.625C171.556 48.625 169.275 48.1979 167.275 47.3438C165.296 46.4896 163.619 45.2917 162.244 43.75C160.89 42.1875 159.858 40.3646 159.15 38.2812C158.442 36.1771 158.087 33.8958 158.087 31.4375ZM167.087 30.7812V31.4375C167.087 32.8542 167.212 34.1771 167.462 35.4062C167.712 36.6354 168.108 37.7188 168.65 38.6562C169.212 39.5729 169.942 40.2917 170.837 40.8125C171.733 41.3333 172.827 41.5938 174.119 41.5938C175.369 41.5938 176.442 41.3333 177.337 40.8125C178.233 40.2917 178.952 39.5729 179.494 38.6562C180.035 37.7188 180.431 36.6354 180.681 35.4062C180.952 34.1771 181.087 32.8542 181.087 31.4375V30.7812C181.087 29.4062 180.952 28.1146 180.681 26.9062C180.431 25.6771 180.025 24.5938 179.462 23.6562C178.921 22.6979 178.202 21.9479 177.306 21.4062C176.41 20.8646 175.327 20.5938 174.056 20.5938C172.785 20.5938 171.702 20.8646 170.806 21.4062C169.931 21.9479 169.212 22.6979 168.65 23.6562C168.108 24.5938 167.712 25.6771 167.462 26.9062C167.212 28.1146 167.087 29.4062 167.087 30.7812Z" fill="white"/>
<path d="M204.985 43.6562C204.985 42.3229 205.443 41.2083 206.36 40.3125C207.298 39.4167 208.537 38.9688 210.079 38.9688C211.62 38.9688 212.85 39.4167 213.766 40.3125C214.704 41.2083 215.173 42.3229 215.173 43.6562C215.173 44.9896 214.704 46.1042 213.766 47C212.85 47.8958 211.62 48.3438 210.079 48.3438C208.537 48.3438 207.298 47.8958 206.36 47C205.443 46.1042 204.985 44.9896 204.985 43.6562Z" fill="#D53F8C"/>
<path d="M21.4688 40.625H20.9688V40.6556L20.9725 40.686L21.4688 40.625ZM21.4688 0V-0.5H20.9688V0H21.4688ZM30.5312 0H31.0312V-0.5H30.5312V0ZM30.5312 48V48.5H31.0312V48H30.5312ZM22.375 48L21.8787 48.061L21.9327 48.5H22.375V48ZM0.96875 23.8125L1.45058 23.9461L1.45091 23.9449L0.96875 23.8125ZM18.5 14.8125L18.2546 15.2481L18.2572 15.2496L18.5 14.8125ZM22.3125 18.375L21.8982 18.655L21.9026 18.6614L22.3125 18.375ZM24.875 23.7812L24.3974 23.9293L24.3978 23.9307L24.875 23.7812ZM26.2812 30.5625H26.7812V30.5329L26.7778 30.5036L26.2812 30.5625ZM26.2812 32L26.7775 32.0615L26.7812 32.0309V32H26.2812ZM22.3125 43.875L21.9026 43.5886L21.9018 43.5898L22.3125 43.875ZM7.625 47.3438L7.39236 47.7863L7.39468 47.7875L7.625 47.3438ZM3.5 43.75L3.09349 44.0411L3.0961 44.0447L3.5 43.75ZM9.40625 35.4062L8.91345 35.4912L8.91501 35.4994L9.40625 35.4062ZM10.5 38.625L10.0587 38.8604L10.0653 38.872L10.5 38.625ZM12.5 40.7812L12.2302 41.2022L12.2364 41.2062L12.2428 41.21L12.5 40.7812ZM19.3438 40.5L19.627 40.9121L19.6328 40.908L19.3438 40.5ZM21.625 37.5938L21.1674 37.3921L21.1646 37.3987L21.625 37.5938ZM22.5625 33.3438L23.0618 33.3697L23.0625 33.3567V33.3438H22.5625ZM22.5625 29.25H23.0625V29.2381L23.0619 29.2262L22.5625 29.25ZM22 25.7188L21.5177 25.8511L21.5211 25.8624L22 25.7188ZM20.6875 23L20.2874 23.3L20.2928 23.307L20.6875 23ZM18.5625 21.25L18.3389 21.6972L18.3433 21.6994L18.5625 21.25ZM12.5938 21.4375L12.8588 21.8616L12.8662 21.8567L12.5938 21.4375ZM10.5625 23.5938L10.1277 23.3467L10.1236 23.3543L10.5625 23.5938ZM9.4375 26.8438L8.94717 26.7457L8.94597 26.7521L9.4375 26.8438ZM21.9688 40.625V0H20.9688V40.625H21.9688ZM21.4688 0.5H30.5312V-0.5H21.4688V0.5ZM30.0312 0V48H31.0312V0H30.0312ZM30.5312 47.5H22.375V48.5H30.5312V47.5ZM22.8713 47.939L21.965 40.564L20.9725 40.686L21.8787 48.061L22.8713 47.939ZM0.59375 31.5V30.8438H-0.40625V31.5H0.59375ZM0.59375 30.8438C0.59375 28.2976 0.881268 25.9997 1.45058 23.9461L0.486923 23.6789C-0.110435 25.8337 -0.40625 28.2233 -0.40625 30.8438H0.59375ZM1.45091 23.9449C2.02057 21.8697 2.85041 20.1049 3.93322 18.6411L3.12928 18.0464C1.96209 19.6243 1.0836 21.5053 0.486587 23.6801L1.45091 23.9449ZM3.93322 18.6411C5.01312 17.1812 6.33882 16.0558 7.91336 15.2586L7.46164 14.3664C5.74451 15.2359 4.29938 16.4646 3.12928 18.0464L3.93322 18.6411ZM7.91336 15.2586C9.47991 14.4654 11.2757 14.0625 13.3125 14.0625V13.0625C11.141 13.0625 9.18676 13.4929 7.46164 14.3664L7.91336 15.2586ZM13.3125 14.0625C15.22 14.0625 16.8619 14.4635 18.2546 15.2481L18.7454 14.3769C17.1798 13.4948 15.3633 13.0625 13.3125 13.0625V14.0625ZM18.2572 15.2496C19.6828 16.0416 20.8968 17.1728 21.8982 18.6549L22.7268 18.0951C21.6449 16.4939 20.3172 15.2501 18.7428 14.3754L18.2572 15.2496ZM21.9026 18.6614C22.9309 20.1332 23.7643 21.8869 24.3974 23.9293L25.3526 23.6332C24.6941 21.509 23.8191 19.6585 22.7224 18.0886L21.9026 18.6614ZM24.3978 23.9307C25.0332 25.9598 25.4962 28.1894 25.7847 30.6214L26.7778 30.5036C26.483 28.0189 26.0084 25.7277 25.3522 23.6318L24.3978 23.9307ZM25.7812 30.5625V32H26.7812V30.5625H25.7812ZM25.785 31.9385C25.4968 34.2654 25.0341 36.4222 24.3987 38.4103L25.3513 38.7147C26.0076 36.6611 26.4824 34.4429 26.7775 32.0615L25.785 31.9385ZM24.3987 38.4103C23.766 40.3901 22.9326 42.1144 21.9026 43.5886L22.7224 44.1614C23.8174 42.594 24.6923 40.7766 25.3513 38.7147L24.3987 38.4103ZM21.9018 43.5898C20.9009 45.0311 19.6861 46.1441 18.2572 46.9379L18.7428 47.8121C20.3139 46.9392 21.6408 45.7189 22.7232 44.1602L21.9018 43.5898ZM18.2572 46.9379C16.8429 47.7236 15.1792 48.125 13.25 48.125V49.125C15.3208 49.125 17.1571 48.693 18.7428 47.8121L18.2572 46.9379ZM13.25 48.125C11.2151 48.125 9.42091 47.7125 7.85532 46.9L7.39468 47.7875C9.12075 48.6834 11.0766 49.125 13.25 49.125V48.125ZM7.85764 46.9012C6.30298 46.084 4.98569 44.9377 3.9039 43.4553L3.0961 44.0447C4.26431 45.6456 5.69702 46.8952 7.39236 47.7863L7.85764 46.9012ZM3.9065 43.4589C2.84065 41.9707 2.02005 40.2127 1.45023 38.1777L0.487268 38.4473C1.08412 40.5789 1.95101 42.446 3.0935 44.0411L3.9065 43.4589ZM1.45023 38.1777C0.880726 36.1437 0.59375 33.9188 0.59375 31.5H-0.40625C-0.40625 33.9978 -0.109892 36.3146 0.487268 38.4473L1.45023 38.1777ZM8.59375 30.8438V31.5H9.59375V30.8438H8.59375ZM8.59375 31.5C8.59375 32.9205 8.69974 34.2513 8.91352 35.4912L9.89898 35.3213C9.69609 34.1446 9.59375 32.8712 9.59375 31.5H8.59375ZM8.91501 35.4994C9.15214 36.7497 9.53165 37.8718 10.0588 38.8603L10.9412 38.3897C10.4684 37.5032 10.1187 36.4794 9.89749 35.3131L8.91501 35.4994ZM10.0653 38.872C10.6224 39.8525 11.3432 40.6337 12.2302 41.2022L12.7698 40.3603C12.0318 39.8872 11.4193 39.2308 10.9347 38.378L10.0653 38.872ZM12.2428 41.21C13.1694 41.766 14.2732 42.0312 15.5312 42.0312V41.0312C14.4143 41.0312 13.4973 40.7965 12.7572 40.3525L12.2428 41.21ZM15.5312 42.0312C17.1467 42.0312 18.5237 41.6706 19.627 40.912L19.0605 40.088C18.1638 40.7044 16.9991 41.0312 15.5312 41.0312V42.0312ZM19.6328 40.908C20.7153 40.1412 21.5317 39.0956 22.0854 37.7888L21.1646 37.3987C20.6767 38.5502 19.9722 39.4421 19.0547 40.092L19.6328 40.908ZM22.0825 37.7954C22.653 36.501 22.9759 35.0229 23.0618 33.3697L22.0632 33.3178C21.9824 34.8729 21.6804 36.2282 21.1675 37.3921L22.0825 37.7954ZM23.0625 33.3438V29.25H22.0625V33.3438H23.0625ZM23.0619 29.2262C22.9979 27.8812 22.8052 26.6628 22.4789 25.5751L21.5211 25.8624C21.8198 26.858 22.0021 27.9938 22.0631 29.2738L23.0619 29.2262ZM22.4822 25.5864C22.1758 24.4705 21.7118 23.5025 21.0822 22.693L20.2928 23.307C20.8299 23.9975 21.2408 24.842 21.5178 25.8511L22.4822 25.5864ZM21.0875 22.7C20.4768 21.8857 19.7061 21.2515 18.7817 20.8006L18.3433 21.6994C19.1272 22.0818 19.7732 22.6143 20.2875 23.3L21.0875 22.7ZM18.7861 20.8028C17.8692 20.3443 16.7997 20.125 15.5938 20.125V21.125C16.6795 21.125 17.5891 21.3223 18.3389 21.6972L18.7861 20.8028ZM15.5938 20.125C14.3475 20.125 13.249 20.4153 12.3213 21.0183L12.8662 21.8567C13.6052 21.3764 14.5067 21.125 15.5938 21.125V20.125ZM12.3288 21.0135C11.4199 21.5815 10.6865 22.3633 10.1278 23.3467L10.9972 23.8408C11.4801 22.9909 12.1009 22.3352 12.8587 21.8615L12.3288 21.0135ZM10.1236 23.3543C9.59477 24.3238 9.205 25.4567 8.94721 26.7457L9.92779 26.9418C10.17 25.7308 10.5302 24.6971 11.0014 23.8332L10.1236 23.3543ZM8.94597 26.7521C8.71041 28.0156 8.59375 29.38 8.59375 30.8438H9.59375C9.59375 29.4325 9.70626 28.1302 9.92903 26.9354L8.94597 26.7521ZM51.7612 22.5312L51.3048 22.7354L51.3069 22.74L51.7612 22.5312ZM50.105 20.6875L49.8477 21.1163L49.8531 21.1194L50.105 20.6875ZM44.6675 20.5625L44.8754 21.0174L44.886 21.0123L44.6675 20.5625ZM42.98 22.0312L43.4025 22.2988L43.4063 22.2925L42.98 22.0312ZM42.3862 24.25V24.75H42.8862V24.25H42.3862ZM33.3862 24.25H32.8862V24.75H33.3862V24.25ZM34.3862 20.1562L33.9419 19.9269L34.3862 20.1562ZM37.2925 16.75L37.5977 17.1461L37.6017 17.1429L37.2925 16.75ZM41.8237 14.4062L41.6724 13.9297L41.6707 13.9302L41.8237 14.4062ZM59.5737 18.8125L59.1577 19.0899L59.16 19.0933L59.5737 18.8125ZM61.6987 44.4062L61.2078 44.501L61.2081 44.5026L61.6987 44.4062ZM62.6987 47.4688H63.1987V47.3507L63.146 47.2451L62.6987 47.4688ZM62.6987 48V48.5H63.1987V48H62.6987ZM53.605 48L53.1538 48.2154L53.2896 48.5H53.605V48ZM52.605 44.5625L52.1104 44.6363L52.1118 44.6447L52.605 44.5625ZM53.48 27.4062L53.98 27.4001L53.9739 26.9062H53.48V27.4062ZM53.5425 32.5V33H54.0487L54.0425 32.4939L53.5425 32.5ZM43.2612 34.0625L43.5856 34.4432L43.5934 34.4362L43.2612 34.0625ZM42.0112 35.75L41.55 35.5566L41.545 35.5695L42.0112 35.75ZM42.1675 39.9688L41.7324 40.2153L41.7362 40.2216L42.1675 39.9688ZM43.6987 41.4062L43.4641 41.8479L43.4751 41.8535L43.6987 41.4062ZM51.8862 39.0938L51.4786 38.8041L51.4736 38.8114L51.8862 39.0938ZM52.7612 36.8438L53.1856 36.5794L52.3101 35.174L52.2615 36.8291L52.7612 36.8438ZM55.1362 40.6562L55.602 40.838L55.6931 40.6046L55.5606 40.3919L55.1362 40.6562ZM53.7612 43.3125L53.3394 43.044L53.3351 43.051L53.7612 43.3125ZM51.605 45.9062L51.9405 46.277L51.9452 46.2726L51.605 45.9062ZM48.4487 47.875L48.6372 48.3382L48.6438 48.3354L48.4487 47.875ZM38.23 47.3438L38.0042 47.7899L38.0107 47.7931L38.23 47.3438ZM34.105 43.75L33.6855 44.0221L33.6899 44.0287L34.105 43.75ZM36.5425 30.3125L36.8362 30.7172L36.8373 30.7163L36.5425 30.3125ZM41.4487 28.1562L41.5676 28.6419L41.5724 28.6407L41.4487 28.1562ZM52.7925 40.375V25.3125H51.7925V40.375H52.7925ZM52.7925 25.3125C52.7925 24.1764 52.607 23.1743 52.2156 22.3225L51.3069 22.74C51.6239 23.4299 51.7925 24.282 51.7925 25.3125H52.7925ZM52.2177 22.3271C51.8208 21.4399 51.1971 20.7457 50.3569 20.2556L49.8531 21.1194C50.5129 21.5043 50.9934 22.0393 51.3048 22.7354L52.2177 22.3271ZM50.3622 20.2588C49.5316 19.7604 48.4862 19.5312 47.2612 19.5312V20.5312C48.3697 20.5312 49.22 20.7396 49.8478 21.1162L50.3622 20.2588ZM47.2612 19.5312C46.2029 19.5312 45.2603 19.7187 44.449 20.1127L44.886 21.0123C45.533 20.698 46.3196 20.5312 47.2612 20.5312V19.5312ZM44.4596 20.1078C43.6456 20.4799 43.0046 21.0343 42.5537 21.77L43.4063 22.2925C43.7471 21.7365 44.2311 21.3118 44.8754 21.0172L44.4596 20.1078ZM42.5576 21.7637C42.1036 22.4805 41.8862 23.3161 41.8862 24.25H42.8862C42.8862 23.4756 43.0647 22.832 43.4024 22.2988L42.5576 21.7637ZM42.3862 23.75H33.3862V24.75H42.3862V23.75ZM33.8862 24.25C33.8862 22.8932 34.2001 21.6072 34.8306 20.3856L33.9419 19.9269C33.2391 21.2887 32.8862 22.7318 32.8862 24.25H33.8862ZM34.8306 20.3856C35.4603 19.1655 36.3788 18.0852 37.5977 17.1461L36.9873 16.3539C35.6645 17.3731 34.6456 18.5637 33.9419 19.9269L34.8306 20.3856ZM37.6017 17.1429C38.8199 16.1844 40.2757 15.429 41.9768 14.8823L41.6707 13.9302C39.8718 14.5085 38.3068 15.3156 36.9833 16.3571L37.6017 17.1429ZM41.9751 14.8828C43.6892 14.3383 45.6162 14.0625 47.7612 14.0625V13.0625C45.5312 13.0625 43.5 13.3492 41.6724 13.9297L41.9751 14.8828ZM47.7612 14.0625C50.3307 14.0625 52.5951 14.4906 54.5643 15.3346L54.9582 14.4154C52.8441 13.5094 50.4418 13.0625 47.7612 13.0625V14.0625ZM54.5643 15.3346C56.5221 16.1736 58.0479 17.4252 59.1577 19.0899L59.9898 18.5351C58.7662 16.6998 57.0838 15.3264 54.9582 14.4154L54.5643 15.3346ZM59.16 19.0933C60.2791 20.7424 60.855 22.8258 60.855 25.375H61.855C61.855 22.6742 61.2434 20.3826 59.9875 18.5317L59.16 19.0933ZM60.855 25.375V39.8438H61.855V25.375H60.855ZM60.855 39.8438C60.855 41.7148 60.9703 43.2704 61.2078 44.501L62.1897 44.3115C61.9688 43.1671 61.855 41.681 61.855 39.8438H60.855ZM61.2081 44.5026C61.4442 45.7043 61.7901 46.7695 62.2515 47.6924L63.146 47.2451C62.7324 46.418 62.4117 45.4415 62.1894 44.3099L61.2081 44.5026ZM62.1987 47.4688V48H63.1987V47.4688H62.1987ZM62.6987 47.5H53.605V48.5H62.6987V47.5ZM54.0562 47.7846C53.6448 46.9226 53.3223 45.825 53.0982 44.4803L52.1118 44.6447C52.346 46.05 52.6902 47.2441 53.1538 48.2154L54.0562 47.7846ZM53.0995 44.4887C52.8948 43.117 52.7925 41.7459 52.7925 40.375H51.7925C51.7925 41.7958 51.8985 43.2163 52.1105 44.6363L53.0995 44.4887ZM52.98 27.4124L53.0425 32.5061L54.0425 32.4939L53.98 27.4001L52.98 27.4124ZM53.5425 32H48.5112V33H53.5425V32ZM48.5112 32C47.2876 32 46.2043 32.1393 45.2697 32.4286L45.5653 33.3839C46.3807 33.1315 47.3599 33 48.5112 33V32ZM45.2697 32.4286C44.341 32.7161 43.5552 33.1323 42.9291 33.6888L43.5934 34.4362C44.0923 33.9927 44.744 33.6381 45.5653 33.3839L45.2697 32.4286ZM42.937 33.6819C42.3182 34.209 41.853 34.8345 41.5502 35.5566L42.4723 35.9434C42.7112 35.3738 43.0793 34.8743 43.5855 34.4431L42.937 33.6819ZM41.545 35.5695C41.2703 36.2791 41.1362 37.0494 41.1362 37.875H42.1362C42.1362 37.1589 42.2522 36.5126 42.4775 35.9305L41.545 35.5695ZM41.1362 37.875C41.1362 38.7257 41.3326 39.5096 41.7325 40.2153L42.6025 39.7222C42.294 39.1779 42.1362 38.5659 42.1362 37.875H41.1362ZM41.7362 40.2216C42.1408 40.9119 42.7223 41.4537 43.4642 41.8478L43.9333 40.9647C43.3418 40.6505 42.9025 40.2339 42.5988 39.7159L41.7362 40.2216ZM43.4751 41.8535C44.2239 42.2278 45.0845 42.4062 46.0425 42.4062V41.4062C45.2088 41.4062 44.5069 41.2513 43.9224 40.959L43.4751 41.8535ZM46.0425 42.4062C47.464 42.4062 48.726 42.1216 49.8119 41.5334L49.3356 40.6541C48.4215 41.1493 47.3293 41.4062 46.0425 41.4062V42.4062ZM49.8119 41.5334C50.8688 40.9609 51.7048 40.2444 52.2989 39.3761L51.4736 38.8114C50.9844 39.5264 50.2787 40.1433 49.3356 40.6541L49.8119 41.5334ZM52.2938 39.3834C52.893 38.5401 53.2364 37.6959 53.261 36.8584L52.2615 36.8291C52.2444 37.4083 52.0045 38.064 51.4787 38.8041L52.2938 39.3834ZM52.3369 37.1081L54.7119 40.9206L55.5606 40.3919L53.1856 36.5794L52.3369 37.1081ZM54.6705 40.4745C54.3509 41.2935 53.9084 42.1499 53.3394 43.0441L54.1831 43.5809C54.7807 42.6417 55.255 41.7274 55.602 40.838L54.6705 40.4745ZM53.3351 43.051C52.7988 43.925 52.1101 44.7549 51.2648 45.5399L51.9452 46.2726C52.8499 45.4326 53.5987 44.5334 54.1874 43.574L53.3351 43.051ZM51.2695 45.5355C50.4411 46.2851 49.438 46.9128 48.2537 47.4146L48.6438 48.3354C49.9178 47.7956 51.0189 47.1108 51.9405 46.277L51.2695 45.5355ZM48.2604 47.4119C47.1049 47.8819 45.7135 48.125 44.0737 48.125V49.125C45.809 49.125 47.3343 48.8681 48.6371 48.3381L48.2604 47.4119ZM44.0737 48.125C41.9961 48.125 40.1243 47.712 38.4493 46.8944L38.0107 47.7931C39.8357 48.6839 41.8598 49.125 44.0737 49.125V48.125ZM38.4558 46.8976C36.7984 46.059 35.4904 44.9169 34.5201 43.4713L33.6899 44.0287C34.7612 45.6248 36.2032 46.8785 38.0042 47.7899L38.4558 46.8976ZM34.5245 43.4779C33.5805 42.0227 33.105 40.3684 33.105 38.5H32.105C32.105 40.5483 32.6295 42.394 33.6855 44.0221L34.5245 43.4779ZM33.105 38.5C33.105 36.7927 33.4261 35.2964 34.0549 33.9994L33.1551 33.5631C32.4506 35.0161 32.105 36.6656 32.105 38.5H33.105ZM34.0549 33.9994C34.684 32.7018 35.6081 31.6085 36.8362 30.7172L36.2488 29.9078C34.8936 30.8915 33.8593 32.1107 33.1551 33.5631L34.0549 33.9994ZM36.8373 30.7163C38.0861 29.8046 39.6579 29.1092 41.5676 28.6419L41.3299 27.6706C39.3229 28.1617 37.6239 28.9038 36.2477 29.9087L36.8373 30.7163ZM41.5724 28.6407C43.481 28.1534 45.7087 27.9062 48.2612 27.9062V26.9062C45.6471 26.9062 43.3332 27.1591 41.3251 27.6718L41.5724 28.6407ZM48.2612 27.9062H53.48V26.9062H48.2612V27.9062ZM80.3975 35.4688L80.1891 35.9234L80.2005 35.9283L80.3975 35.4688ZM76.0537 34.2188L75.9465 34.7072L75.9567 34.7092L76.0537 34.2188ZM71.2725 32.8125L71.0868 33.2768L71.0948 33.2798L71.2725 32.8125ZM67.46 30.7188L67.1563 31.1159L67.16 31.1187L67.46 30.7188ZM64.96 27.8438L64.5195 28.0803L64.5214 28.0838L64.96 27.8438ZM64.96 20L64.5127 19.7764L64.5098 19.7824L64.96 20ZM67.6162 16.6875L67.937 17.071L67.9377 17.0705L67.6162 16.6875ZM71.8662 14.4062L72.0208 14.8818L72.0244 14.8806L71.8662 14.4062ZM85.1162 14.9688L84.9128 15.4255L84.9144 15.4262L85.1162 14.9688ZM89.9912 18.8438L89.5784 19.1259L89.5826 19.1319L89.9912 18.8438ZM91.71 24.4062V24.9062H92.21V24.4062H91.71ZM82.71 24.4062H82.21V24.9062H82.71V24.4062ZM82.1475 22.0625L81.7003 22.2861L81.7043 22.2941L81.7086 22.3019L82.1475 22.0625ZM80.46 20.4062L80.2172 20.8433L80.2243 20.8473L80.2316 20.851L80.46 20.4062ZM74.9287 20.3125L75.1367 20.7674L75.1472 20.7623L74.9287 20.3125ZM73.2412 21.6875L72.8275 21.4067L72.8252 21.4101L73.2412 21.6875ZM72.9912 24.9688L72.544 25.1924L72.5509 25.206L72.5585 25.2193L72.9912 24.9688ZM76.0225 27L75.8496 27.4692L75.857 27.4719L75.8644 27.4743L76.0225 27ZM79.0225 27.75L79.123 27.2602L79.1172 27.2591L79.0225 27.75ZM85.5537 29.7188L85.3586 30.1791L85.3629 30.1809L85.5537 29.7188ZM90.1162 32.9688L89.7293 33.2854L89.7317 33.2883L90.1162 32.9688ZM87.9287 45.7188L88.2244 46.122L88.2287 46.1187L87.9287 45.7188ZM83.4287 47.875L83.5676 48.3553L83.5714 48.3542L83.4287 47.875ZM69.585 46.9375L69.3546 47.3813L69.3563 47.3821L69.585 46.9375ZM64.6475 42.6562L64.2246 42.9231L64.2284 42.9289L64.6475 42.6562ZM62.9912 37.2812V36.7812H62.4912V37.2812H62.9912ZM71.5225 37.2812L72.0222 37.2643L72.0058 36.7812H71.5225V37.2812ZM72.46 40.25L72.0653 40.557L72.0706 40.5637L72.46 40.25ZM74.7412 41.875L74.5704 42.3449L74.5737 42.3461L74.7412 41.875ZM80.6787 41.9062L80.8667 42.3697L80.8772 42.3652L80.6787 41.9062ZM82.4287 40.5938L82.027 40.2961L82.0251 40.2987L82.4287 40.5938ZM83.5537 38.6562C83.5537 37.9063 83.3337 37.2206 82.897 36.6141L82.0855 37.1984C82.3988 37.6336 82.5537 38.1146 82.5537 38.6562H83.5537ZM82.897 36.6141C82.443 35.9835 81.6454 35.4596 80.5945 35.0092L80.2005 35.9283C81.1913 36.3529 81.7895 36.7874 82.0855 37.1984L82.897 36.6141ZM80.6058 35.0142C79.5532 34.5318 78.0608 34.1061 76.1508 33.7283L75.9567 34.7092C77.8384 35.0814 79.2418 35.489 80.1892 35.9233L80.6058 35.0142ZM76.161 33.7304C74.4741 33.3601 72.9042 32.8981 71.4502 32.3452L71.0948 33.2798C72.5991 33.8519 74.2167 34.3274 75.9465 34.7071L76.161 33.7304ZM71.4582 32.3483C70.0343 31.7787 68.8031 31.1011 67.76 30.3188L67.16 31.1187C68.2835 31.9614 69.5941 32.6796 71.0868 33.2767L71.4582 32.3483ZM67.7637 30.3216C66.7531 29.5488 65.9672 28.6429 65.3986 27.6037L64.5214 28.0838C65.1611 29.2529 66.0419 30.2637 67.1563 31.1159L67.7637 30.3216ZM65.4005 27.6072C64.8401 26.5637 64.5537 25.3655 64.5537 24H63.5537C63.5537 25.5095 63.8716 26.8738 64.5195 28.0803L65.4005 27.6072ZM64.5537 24C64.5537 22.6571 64.8395 21.3983 65.4102 20.2176L64.5098 19.7824C63.8722 21.1017 63.5537 22.5096 63.5537 24H64.5537ZM65.4072 20.2236C65.9994 19.0392 66.8402 17.9884 67.937 17.071L67.2955 16.304C66.1006 17.3033 65.1706 18.4608 64.5128 19.7764L65.4072 20.2236ZM67.9377 17.0705C69.0483 16.1383 70.4061 15.4065 72.0208 14.8818L71.7117 13.9307C69.9931 14.4893 68.5175 15.2783 67.2948 16.3045L67.9377 17.0705ZM72.0244 14.8806C73.6525 14.3379 75.4938 14.0625 77.5537 14.0625V13.0625C75.4054 13.0625 73.455 13.3496 71.7081 13.9319L72.0244 14.8806ZM77.5537 14.0625C80.4397 14.0625 82.8877 14.5232 84.9128 15.4255L85.3197 14.512C83.1365 13.5393 80.5428 13.0625 77.5537 13.0625V14.0625ZM84.9144 15.4262C86.9685 16.3324 88.5143 17.569 89.5785 19.1259L90.404 18.5616C89.2182 16.8268 87.514 15.4801 85.3181 14.5113L84.9144 15.4262ZM89.5826 19.1319C90.6661 20.6684 91.21 22.4209 91.21 24.4062H92.21C92.21 22.225 91.6081 20.2691 90.3999 18.5556L89.5826 19.1319ZM91.71 23.9062H82.71V24.9062H91.71V23.9062ZM83.21 24.4062C83.21 23.4576 83.006 22.5923 82.5864 21.8231L81.7086 22.3019C82.039 22.9077 82.21 23.6049 82.21 24.4062H83.21ZM82.5947 21.8389C82.1885 21.0264 81.5444 20.4011 80.6884 19.9615L80.2316 20.851C80.9172 21.2031 81.3982 21.6819 81.7003 22.2861L82.5947 21.8389ZM80.7028 19.9692C79.8544 19.4978 78.783 19.2812 77.5225 19.2812V20.2812C78.6787 20.2812 79.5656 20.4814 80.2172 20.8433L80.7028 19.9692ZM77.5225 19.2812C76.4641 19.2812 75.5216 19.4687 74.7103 19.8627L75.1472 20.7623C75.7943 20.448 76.5809 20.2812 77.5225 20.2812V19.2812ZM74.7209 19.8578C73.9201 20.2238 73.2815 20.7377 72.8275 21.4067L73.655 21.9683C73.9927 21.4706 74.479 21.0679 75.1366 20.7672L74.7209 19.8578ZM72.8252 21.4101C72.3945 22.0563 72.1787 22.7781 72.1787 23.5625H73.1787C73.1787 22.9719 73.338 22.4437 73.6573 21.9649L72.8252 21.4101ZM72.1787 23.5625C72.1787 24.1517 72.2971 24.6984 72.544 25.1924L73.4385 24.7451C73.2688 24.4057 73.1787 24.015 73.1787 23.5625H72.1787ZM72.5585 25.2193C72.8362 25.6989 73.2631 26.1155 73.8076 26.4785L74.3623 25.6465C73.9069 25.3429 73.6046 25.0303 73.424 24.7182L72.5585 25.2193ZM73.8076 26.4785C74.3504 26.8404 75.0347 27.1689 75.8496 27.4692L76.1954 26.5308C75.4269 26.2477 74.8196 25.9513 74.3623 25.6465L73.8076 26.4785ZM75.8644 27.4743C76.7041 27.7543 77.7268 28.0092 78.9278 28.2409L79.1172 27.2591C77.9432 27.0325 76.9659 26.7874 76.1806 26.5257L75.8644 27.4743ZM78.922 28.2398C81.3331 28.7344 83.4777 29.3817 85.3586 30.1791L85.7489 29.2584C83.7965 28.4308 81.5869 27.7656 79.123 27.2602L78.922 28.2398ZM85.3629 30.1809C87.216 30.9463 88.6647 31.9843 89.7293 33.2854L90.5032 32.6521C89.3178 31.2032 87.7249 30.0745 85.7446 29.2566L85.3629 30.1809ZM89.7317 33.2883C90.7647 34.5317 91.3037 36.1904 91.3037 38.3125H92.3037C92.3037 36.018 91.7178 34.1141 90.5008 32.6492L89.7317 33.2883ZM91.3037 38.3125C91.3037 39.7354 90.9883 41.0289 90.3626 42.2022L91.2449 42.6728C91.9525 41.3461 92.3037 39.8896 92.3037 38.3125H91.3037ZM90.3626 42.2022C89.7338 43.3812 88.8263 44.4206 87.6287 45.3188L88.2287 46.1187C89.5312 45.1419 90.5404 43.9938 91.2449 42.6728L90.3626 42.2022ZM87.6331 45.3155C86.4368 46.1928 84.9907 46.8885 83.2861 47.3958L83.5714 48.3542C85.3668 47.8199 86.9207 47.078 88.2244 46.122L87.6331 45.3155ZM83.2899 47.3947C81.6139 47.8793 79.7139 48.125 77.585 48.125V49.125C79.7894 49.125 81.7853 48.8707 83.5676 48.3553L83.2899 47.3947ZM77.585 48.125C74.4972 48.125 71.9135 47.5728 69.8137 46.4929L69.3563 47.3821C71.6315 48.5522 74.3812 49.125 77.585 49.125V48.125ZM69.8154 46.4938C67.7112 45.4012 66.1366 44.0281 65.0666 42.3836L64.2284 42.9289C65.4084 44.7427 67.1254 46.2238 69.3546 47.3812L69.8154 46.4938ZM65.0704 42.3894C64.0099 40.7087 63.4912 39.0084 63.4912 37.2812H62.4912C62.4912 39.2208 63.0767 41.1038 64.2246 42.9231L65.0704 42.3894ZM62.9912 37.7812H71.5225V36.7812H62.9912V37.7812ZM71.0228 37.2982C71.067 38.6017 71.4005 39.7023 72.0653 40.557L72.8547 39.943C72.3528 39.2977 72.0614 38.4191 72.0222 37.2643L71.0228 37.2982ZM72.0706 40.5637C72.7328 41.3856 73.5691 41.9808 74.5704 42.3449L74.9121 41.4051C74.08 41.1025 73.3956 40.6144 72.8494 39.9363L72.0706 40.5637ZM74.5737 42.3461C75.5696 42.7002 76.6372 42.875 77.7725 42.875V41.875C76.7412 41.875 75.7879 41.7165 74.9088 41.4039L74.5737 42.3461ZM77.7725 42.875C78.9795 42.875 80.0173 42.7139 80.8666 42.3696L80.4909 41.4429C79.7986 41.7236 78.8988 41.875 77.7725 41.875V42.875ZM80.8772 42.3652C81.7095 42.0053 82.3723 41.5184 82.8324 40.8888L82.0251 40.2987C81.6935 40.7524 81.1897 41.1406 80.4803 41.4473L80.8772 42.3652ZM82.8305 40.8914C83.3138 40.239 83.5537 39.4878 83.5537 38.6562H82.5537C82.5537 39.283 82.3771 39.8235 82.027 40.2961L82.8305 40.8914ZM102.909 0H103.409V-0.5H102.909V0ZM102.909 48V48.5H103.409V48H102.909ZM93.9088 48H93.4088V48.5H93.9088V48ZM93.9088 0V-0.5H93.4088V0H93.9088ZM101.628 29.9062V30.4062H102.128V29.9062H101.628ZM99.1588 29.9062L98.6588 29.9018L98.6543 30.4062H99.1588V29.9062ZM100.096 23.4062L100.574 23.5522L100.575 23.5508L100.096 23.4062ZM102.69 18.2188L103.086 18.5242L103.088 18.5214L102.69 18.2188ZM106.721 14.7812L106.493 14.3364L106.491 14.3376L106.721 14.7812ZM116.503 14.2812L116.336 14.7527L116.344 14.7556L116.503 14.2812ZM120.034 16.5312L119.669 16.8738L119.677 16.8811L120.034 16.5312ZM122.346 20.5625L122.822 20.408L122.346 20.5625ZM123.159 48V48.5H123.659V48H123.159ZM114.096 48H113.596V48.5H114.096V48ZM113.44 23.0312L112.989 23.2462L112.992 23.2527L112.995 23.2592L113.44 23.0312ZM111.596 21.1875L111.382 21.6394L111.389 21.6427L111.396 21.6458L111.596 21.1875ZM105.346 21.3438L105.115 20.9006L105.11 20.9029L105.346 21.3438ZM103.19 23.3438L103.609 23.6163L103.612 23.6115L103.19 23.3438ZM102.409 0V48H103.409V0H102.409ZM102.909 47.5H93.9088V48.5H102.909V47.5ZM94.4088 48V0H93.4088V48H94.4088ZM93.9088 0.5H102.909V-0.5H93.9088V0.5ZM101.628 29.4062H99.1588V30.4062H101.628V29.4062ZM99.6587 29.9107C99.6792 27.598 99.9861 25.4797 100.574 23.5522L99.618 23.2603C98.9981 25.2911 98.68 27.5062 98.6588 29.9018L99.6587 29.9107ZM100.575 23.5508C101.164 21.6013 102.003 19.9283 103.086 18.5242L102.294 17.9133C101.127 19.4258 100.237 21.2112 99.6176 23.2617L100.575 23.5508ZM103.088 18.5214C104.171 17.0977 105.459 16.0014 106.952 15.2249L106.491 14.3376C104.859 15.1861 103.459 16.3815 102.292 17.9161L103.088 18.5214ZM106.95 15.2261C108.457 14.4526 110.128 14.0625 111.971 14.0625V13.0625C109.981 13.0625 108.152 13.4849 106.493 14.3364L106.95 15.2261ZM111.971 14.0625C113.59 14.0625 115.043 14.2952 116.336 14.7526L116.669 13.8099C115.254 13.309 113.686 13.0625 111.971 13.0625V14.0625ZM116.344 14.7556C117.642 15.1881 118.748 15.8933 119.669 16.8737L120.398 16.1888C119.361 15.0859 118.113 14.2911 116.661 13.8069L116.344 14.7556ZM119.677 16.8811C120.612 17.8358 121.348 19.1074 121.871 20.717L122.822 20.408C122.262 18.6842 121.456 17.2684 120.391 16.1814L119.677 16.8811ZM121.871 20.717C122.392 22.3196 122.659 24.2851 122.659 26.625H123.659C123.659 24.2149 123.384 22.1387 122.822 20.408L121.871 20.717ZM122.659 26.625V48H123.659V26.625H122.659ZM123.159 47.5H114.096V48.5H123.159V47.5ZM114.596 48V26.5625H113.596V48H114.596ZM114.596 26.5625C114.596 25.0235 114.373 23.7568 113.885 22.8033L112.995 23.2592C113.382 24.0141 113.596 25.1015 113.596 26.5625H114.596ZM113.891 22.8163C113.428 21.8434 112.73 21.1361 111.796 20.7292L111.396 21.6458C112.088 21.9472 112.618 22.4691 112.989 23.2462L113.891 22.8163ZM111.81 20.7356C110.933 20.3202 109.876 20.125 108.659 20.125V21.125C109.775 21.125 110.676 21.3048 111.382 21.6394L111.81 20.7356ZM108.659 20.125C107.306 20.125 106.118 20.3759 105.115 20.9006L105.578 21.7869C106.407 21.3532 107.428 21.125 108.659 21.125V20.125ZM105.11 20.9029C104.139 21.4225 103.356 22.1487 102.768 23.076L103.612 23.6115C104.108 22.8305 104.762 22.2233 105.582 21.7846L105.11 20.9029ZM102.771 23.0713C102.192 23.962 101.775 24.9986 101.514 26.1728L102.491 26.3897C102.73 25.3139 103.105 24.3922 103.609 23.6162L102.771 23.0713ZM101.514 26.1728C101.256 27.3374 101.128 28.5824 101.128 29.9062H102.128C102.128 28.6468 102.249 27.4751 102.491 26.3897L101.514 26.1728ZM147.889 14.1875V13.6875H147.442L147.392 14.1318L147.889 14.1875ZM156.045 14.1875H156.545V13.6875H156.045V14.1875ZM153.982 54.7188L153.561 54.449L153.558 54.4538L153.982 54.7188ZM148.295 59.625L148.089 59.1695L148.085 59.171L148.295 59.625ZM135.295 60.75L135.178 61.2362L135.18 61.2365L135.295 60.75ZM130.795 59L130.551 59.4365L130.554 59.438L130.795 59ZM127.232 56L126.832 55.7008L126.602 56.0091L126.841 56.3107L127.232 56ZM131.201 50.6875L131.58 50.361L131.173 49.8894L130.801 50.3883L131.201 50.6875ZM134.826 53.5L135.05 53.0528L135.044 53.0501L134.826 53.5ZM143.514 53.625L143.284 53.1811L143.277 53.1845L143.514 53.625ZM146.107 51.0312L145.667 50.7947L145.665 50.798L146.107 51.0312ZM147.014 22L146.517 21.9443L146.514 21.9721V22H147.014ZM126.076 23.8125L125.598 23.6671L125.597 23.6701L126.076 23.8125ZM128.795 18.3438L128.401 18.036L128.398 18.0394L128.795 18.3438ZM148.232 18.375L147.81 18.6431L147.812 18.6457L148.232 18.375ZM150.514 23.7812L150.03 23.9071L150.031 23.9128L150.514 23.7812ZM151.826 30.5625H152.326V30.5308L152.322 30.4994L151.826 30.5625ZM151.826 32L152.322 32.0658L152.326 32.033V32H151.826ZM147.951 43.875L148.365 44.1563L148.366 44.1537L147.951 43.875ZM144.139 47.375L143.898 46.9365L143.896 46.9379L144.139 47.375ZM133.107 47.3438L132.879 47.7887L132.882 47.7899L133.107 47.3438ZM126.076 38.3125L125.597 38.4562L125.599 38.4605L126.076 38.3125ZM135.795 38.625L135.366 38.8823L135.373 38.8934L135.795 38.625ZM137.951 40.7812L137.691 41.2081L137.697 41.2118L137.703 41.2154L137.951 40.7812ZM145.076 40.5L145.352 40.9173L145.357 40.9135L145.076 40.5ZM148.326 33.3438L148.826 33.3697L148.826 33.3567V33.3438H148.326ZM148.326 29.25H148.826V29.2421L148.826 29.2341L148.326 29.25ZM147.795 25.7188L147.315 25.8598L147.316 25.8624L147.795 25.7188ZM138.014 21.4375L138.274 21.8644L138.277 21.8626L138.014 21.4375ZM135.857 23.5938L135.436 23.3253L135.431 23.3322L135.857 23.5938ZM134.576 26.8438L135.063 26.9592L135.063 26.9574L134.576 26.8438ZM147.889 14.6875H156.045V13.6875H147.889V14.6875ZM155.545 14.1875V46.875H156.545V14.1875H155.545ZM155.545 46.875C155.545 49.8829 154.875 52.3992 153.562 54.449L154.403 54.9885C155.84 52.7467 156.545 50.0337 156.545 46.875H155.545ZM153.558 54.4538C152.259 56.5328 150.441 58.104 148.089 59.1696L148.501 60.0804C151.024 58.9377 152.998 57.238 154.406 54.9837L153.558 54.4538ZM148.085 59.171C145.726 60.2602 142.966 60.8125 139.795 60.8125V61.8125C143.082 61.8125 145.989 61.2398 148.505 60.079L148.085 59.171ZM139.795 60.8125C138.422 60.8125 136.961 60.6308 135.41 60.2635L135.18 61.2365C136.795 61.6192 138.334 61.8125 139.795 61.8125V60.8125ZM135.412 60.2638C133.894 59.8995 132.435 59.3326 131.036 58.562L130.554 59.438C132.03 60.2507 133.571 60.8505 135.178 61.2362L135.412 60.2638ZM131.039 58.5635C129.676 57.802 128.54 56.8438 127.624 55.6893L126.841 56.3107C127.842 57.5729 129.08 58.6146 130.551 59.4365L131.039 58.5635ZM127.633 56.2992L131.602 50.9867L130.801 50.3883L126.832 55.7008L127.633 56.2992ZM130.823 51.014C131.907 52.2717 133.169 53.2522 134.608 53.9499L135.044 53.0501C133.733 52.4145 132.579 51.52 131.58 50.361L130.823 51.014ZM134.603 53.9472C136.053 54.6723 137.651 55.0312 139.389 55.0312V54.0312C137.793 54.0312 136.35 53.7027 135.05 53.0528L134.603 53.9472ZM139.389 55.0312C141.074 55.0312 142.535 54.7179 143.75 54.0655L143.277 53.1845C142.242 53.7404 140.953 54.0312 139.389 54.0312V55.0312ZM143.744 54.0689C144.962 53.4375 145.899 52.4984 146.55 51.2645L145.665 50.798C145.107 51.8558 144.316 52.6458 143.284 53.1811L143.744 54.0689ZM146.548 51.2678C147.2 50.0538 147.514 48.6035 147.514 46.9375H146.514C146.514 48.4799 146.223 49.7587 145.667 50.7947L146.548 51.2678ZM147.514 46.9375V22H146.514V46.9375H147.514ZM147.511 22.0557L148.386 14.2432L147.392 14.1318L146.517 21.9443L147.511 22.0557ZM125.639 31.5V30.8438H124.639V31.5H125.639ZM125.639 30.8438C125.639 28.3003 125.946 26.0055 126.556 23.9549L125.597 23.6701C124.956 25.8278 124.639 28.2205 124.639 30.8438H125.639ZM126.555 23.9579C127.186 21.8814 128.067 20.1144 129.192 18.6481L128.398 18.0394C127.19 19.6148 126.258 21.4936 125.598 23.6671L126.555 23.9579ZM129.189 18.6515C130.332 17.1883 131.711 16.06 133.329 15.2608L132.886 14.3642C131.129 15.2317 129.633 16.4575 128.401 18.036L129.189 18.6515ZM133.329 15.2608C134.939 14.4656 136.768 14.0625 138.826 14.0625V13.0625C136.634 13.0625 134.651 13.4927 132.886 14.3642L133.329 15.2608ZM138.826 14.0625C141.017 14.0625 142.814 14.4683 144.242 15.251L144.723 14.374C143.11 13.4901 141.136 13.0625 138.826 13.0625V14.0625ZM144.242 15.251C145.685 16.0416 146.874 17.1687 147.81 18.6431L148.655 18.1069C147.633 16.4979 146.322 15.2501 144.723 14.374L144.242 15.251ZM147.812 18.6457C148.758 20.1143 149.499 21.8656 150.03 23.9071L150.998 23.6554C150.445 21.5302 149.666 19.6773 148.653 18.1043L147.812 18.6457ZM150.031 23.9128C150.587 25.9496 151.02 28.1868 151.33 30.6256L152.322 30.4994C152.007 28.0215 151.566 25.7379 150.996 23.6497L150.031 23.9128ZM151.326 30.5625V32H152.326V30.5625H151.326ZM151.331 31.9342C151.021 34.2639 150.558 36.4237 149.942 38.4148L150.898 38.7102C151.532 36.6596 152.006 34.4444 152.322 32.0658L151.331 31.9342ZM149.942 38.4148C149.33 40.3962 148.526 42.1216 147.536 43.5963L148.366 44.1537C149.418 42.5868 150.26 40.7705 150.898 38.7102L149.942 38.4148ZM147.538 43.5937C146.559 45.0315 145.347 46.1429 143.898 46.9365L144.379 47.8135C145.972 46.9404 147.301 45.7185 148.365 44.1563L147.538 43.5937ZM143.896 46.9379C142.485 47.722 140.78 48.125 138.764 48.125V49.125C140.914 49.125 142.793 48.6947 144.382 47.8121L143.896 46.9379ZM138.764 48.125C136.751 48.125 134.944 47.7129 133.333 46.8976L132.882 47.7899C134.646 48.6829 136.61 49.125 138.764 49.125V48.125ZM133.336 46.8988C131.737 46.0796 130.367 44.9305 129.222 43.4449L128.43 44.0551C129.661 45.6529 131.145 46.8996 132.879 47.7887L133.336 46.8988ZM129.222 43.4449C128.075 41.9557 127.184 40.1978 126.554 38.1645L125.599 38.4605C126.26 40.5938 127.202 42.461 128.43 44.0551L129.222 43.4449ZM126.555 38.1688C125.946 36.1377 125.639 33.9159 125.639 31.5H124.639C124.639 34.0008 124.957 36.3206 125.597 38.4562L126.555 38.1688ZM133.639 30.8438V31.5H134.639V30.8438H133.639ZM133.639 31.5C133.639 32.928 133.777 34.2672 134.057 35.5156L135.033 35.2969C134.771 34.1287 134.639 32.8636 134.639 31.5H133.639ZM134.057 35.5156C134.338 36.7693 134.773 37.8933 135.366 38.8822L136.224 38.3678C135.692 37.4817 135.294 36.4599 135.033 35.2969L134.057 35.5156ZM135.373 38.8934C135.994 39.8689 136.766 40.6442 137.691 41.2081L138.212 40.3544C137.428 39.8766 136.763 39.2144 136.217 38.3566L135.373 38.8934ZM137.703 41.2154C138.666 41.7657 139.786 42.0312 141.045 42.0312V41.0312C139.929 41.0312 138.986 40.7968 138.199 40.3471L137.703 41.2154ZM141.045 42.0312C142.758 42.0312 144.206 41.6735 145.352 40.9173L144.801 40.0827C143.863 40.7015 142.624 41.0312 141.045 41.0312V42.0312ZM145.357 40.9135C146.483 40.1478 147.324 39.101 147.88 37.7888L146.96 37.3987C146.474 38.5449 145.752 39.4355 144.795 40.0865L145.357 40.9135ZM147.88 37.7888C148.428 36.4963 148.74 35.0206 148.826 33.3697L147.827 33.3178C147.746 34.8753 147.454 36.2329 146.96 37.3987L147.88 37.7888ZM148.826 33.3438V29.25H147.826V33.3438H148.826ZM148.826 29.2341C148.783 27.8869 148.601 26.6658 148.274 25.5751L147.316 25.8624C147.614 26.855 147.786 27.9881 147.826 29.2659L148.826 29.2341ZM148.275 25.5777C147.948 24.468 147.487 23.5056 146.882 22.7L146.082 23.3C146.603 23.9944 147.017 24.8445 147.315 25.8598L148.275 25.5777ZM146.882 22.7C146.268 21.8805 145.472 21.2461 144.506 20.7966L144.084 21.7034C144.909 22.0872 145.572 22.6195 146.082 23.3L146.882 22.7ZM144.506 20.7966C143.53 20.3427 142.392 20.125 141.107 20.125V21.125C142.281 21.125 143.268 21.324 144.084 21.7034L144.506 20.7966ZM141.107 20.125C139.842 20.125 138.716 20.4146 137.751 21.0124L138.277 21.8626C139.061 21.3771 139.998 21.125 141.107 21.125V20.125ZM137.753 21.0106C136.829 21.5746 136.056 22.3498 135.436 23.3253L136.279 23.8622C136.825 23.0043 137.491 22.3421 138.274 21.8644L137.753 21.0106ZM135.431 23.3322C134.836 24.3025 134.391 25.4377 134.089 26.7301L135.063 26.9574C135.345 25.7498 135.754 24.7183 136.284 23.8553L135.431 23.3322ZM134.09 26.7283C133.788 28.0001 133.639 29.3726 133.639 30.8438H134.639C134.639 29.4399 134.781 28.1458 135.063 26.9592L134.09 26.7283ZM159.15 23.9375L159.623 24.0985L159.624 24.097L159.15 23.9375ZM167.244 14.875L167.442 15.3341L167.446 15.3323L167.244 14.875ZM180.9 14.875L180.7 15.3331L180.704 15.3348L180.9 14.875ZM185.931 18.4688L185.556 18.7987L185.558 18.8016L185.931 18.4688ZM189.056 23.9375L188.582 24.097L188.583 24.0985L189.056 23.9375ZM189.056 38.2812L189.53 38.4422L189.53 38.4408L189.056 38.2812ZM185.931 43.75L185.556 43.4197L185.556 43.42L185.931 43.75ZM167.275 47.3438L167.077 47.8028L167.079 47.8036L167.275 47.3438ZM162.244 43.75L161.866 44.0775L161.871 44.0828L162.244 43.75ZM159.15 38.2812L158.676 38.4408L158.677 38.4422L159.15 38.2812ZM168.65 38.6562L168.217 38.9065L168.224 38.9178L168.65 38.6562ZM179.494 38.6562L179.924 38.9106L179.927 38.9064L179.494 38.6562ZM180.681 35.4062L180.193 35.2986L180.191 35.3066L180.681 35.4062ZM180.681 26.9062L180.191 27.0059L180.193 27.0156L180.681 26.9062ZM179.462 23.6562L179.027 23.9024L179.034 23.9135L179.462 23.6562ZM170.806 21.4062L170.548 20.9784L170.543 20.9811L170.806 21.4062ZM168.65 23.6562L168.219 23.4031L168.217 23.4061L168.65 23.6562ZM167.462 26.9062L167.952 27.0076L167.952 27.0059L167.462 26.9062ZM158.587 31.4375V30.7812H157.587V31.4375H158.587ZM158.587 30.7812C158.587 28.35 158.935 26.1238 159.623 24.0985L158.677 23.7765C157.949 25.9178 157.587 28.2542 157.587 30.7812H158.587ZM159.624 24.097C160.313 22.0504 161.312 20.2867 162.619 18.7987L161.868 18.1388C160.467 19.7342 159.404 21.6162 158.676 23.778L159.624 24.097ZM162.619 18.7987C163.922 17.3155 165.527 16.1604 167.442 15.3341L167.046 14.4159C165.002 15.2979 163.274 16.5386 161.868 18.1388L162.619 18.7987ZM167.446 15.3323C169.351 14.4902 171.551 14.0625 174.056 14.0625V13.0625C171.437 13.0625 169.095 13.5098 167.042 14.4177L167.446 15.3323ZM174.056 14.0625C176.562 14.0625 178.773 14.4901 180.7 15.3331L181.1 14.4169C179.027 13.5099 176.676 13.0625 174.056 13.0625V14.0625ZM180.704 15.3348C182.639 16.1614 184.254 17.3165 185.556 18.7987L186.307 18.1388C184.9 16.5376 183.161 15.2969 181.096 14.4152L180.704 15.3348ZM185.558 18.8016C186.885 20.2892 187.894 22.052 188.582 24.097L189.53 23.778C188.802 21.6147 187.728 19.7317 186.304 18.1359L185.558 18.8016ZM188.583 24.0985C189.271 26.1238 189.619 28.35 189.619 30.7812H190.619C190.619 28.2542 190.258 25.9178 189.53 23.7765L188.583 24.0985ZM189.619 30.7812V31.4375H190.619V30.7812H189.619ZM189.619 31.4375C189.619 33.8474 189.272 36.0742 188.582 38.1217L189.53 38.4408C190.258 36.28 190.619 33.9443 190.619 31.4375H189.619ZM188.583 38.1203C187.894 40.1449 186.885 41.9094 185.556 43.4197L186.307 44.0803C187.728 42.4656 188.801 40.5843 189.53 38.4422L188.583 38.1203ZM185.556 43.42C184.253 44.9032 182.648 46.0583 180.733 46.8847L181.129 47.8028C183.173 46.9208 184.901 45.6801 186.307 44.08L185.556 43.42ZM180.733 46.8847C178.827 47.7072 176.626 48.125 174.119 48.125V49.125C176.737 49.125 179.077 48.6886 181.129 47.8028L180.733 46.8847ZM174.119 48.125C171.612 48.125 169.399 47.7073 167.471 46.8839L167.079 47.8036C169.151 48.6885 171.501 49.125 174.119 49.125V48.125ZM167.473 46.8847C165.558 46.0581 163.941 44.9022 162.617 43.4172L161.871 44.0828C163.296 45.6812 165.034 46.9211 167.077 47.8028L167.473 46.8847ZM162.622 43.4225C161.312 41.9119 160.312 40.1465 159.623 38.1203L158.677 38.4422C159.404 40.5827 160.467 42.4631 161.866 44.0775L162.622 43.4225ZM159.624 38.1217C158.935 36.0742 158.587 33.8474 158.587 31.4375H157.587C157.587 33.9443 157.949 36.28 158.676 38.4408L159.624 38.1217ZM166.587 30.7812V31.4375H167.587V30.7812H166.587ZM166.587 31.4375C166.587 32.8834 166.715 34.24 166.973 35.5059L167.952 35.3066C167.71 34.1141 167.587 32.8249 167.587 31.4375H166.587ZM166.973 35.5059C167.232 36.7798 167.644 37.9154 168.217 38.9064L169.083 38.4061C168.572 37.5221 168.193 36.4911 167.952 35.3066L166.973 35.5059ZM168.224 38.9178C168.828 39.9022 169.616 40.6807 170.586 41.2448L171.089 40.3802C170.267 39.9026 169.597 39.2437 169.076 38.3947L168.224 38.9178ZM170.586 41.2448C171.575 41.8197 172.76 42.0938 174.119 42.0938V41.0938C172.894 41.0938 171.892 40.847 171.089 40.3802L170.586 41.2448ZM174.119 42.0938C175.439 42.0938 176.602 41.8183 177.589 41.2448L177.086 40.3802C176.281 40.8484 175.299 41.0938 174.119 41.0938V42.0938ZM177.589 41.2448C178.561 40.6797 179.34 39.8988 179.924 38.9106L179.063 38.4019C178.564 39.247 177.906 39.9036 177.086 40.3802L177.589 41.2448ZM179.927 38.9064C180.499 37.9154 180.912 36.7798 181.171 35.5059L180.191 35.3066C179.95 36.4911 179.572 37.5221 179.061 38.4061L179.927 38.9064ZM181.17 35.5138C181.449 34.2453 181.587 32.8859 181.587 31.4375H180.587C180.587 32.8224 180.455 34.1089 180.193 35.2987L181.17 35.5138ZM181.587 31.4375V30.7812H180.587V31.4375H181.587ZM181.587 30.7812C181.587 29.3734 181.449 28.0448 181.169 26.7969L180.193 27.0156C180.455 28.1844 180.587 29.4391 180.587 30.7812H181.587ZM181.171 26.8066C180.912 25.5299 180.487 24.3918 179.891 23.399L179.034 23.9135C179.563 24.7957 179.951 25.8243 180.191 27.0059L181.171 26.8066ZM179.898 23.4102C179.316 22.3811 178.538 21.5668 177.565 20.9784L177.048 21.8341C177.866 22.329 178.526 23.0147 179.027 23.9023L179.898 23.4102ZM177.565 20.9784C176.576 20.3803 175.399 20.0938 174.056 20.0938V21.0938C175.255 21.0938 176.245 21.3488 177.048 21.8341L177.565 20.9784ZM174.056 20.0938C172.714 20.0938 171.537 20.3803 170.548 20.9784L171.065 21.8341C171.868 21.3488 172.857 21.0938 174.056 21.0938V20.0938ZM170.543 20.9811C169.593 21.569 168.819 22.3804 168.219 23.4031L169.081 23.9094C169.606 23.0154 170.269 22.3269 171.069 21.8314L170.543 20.9811ZM168.217 23.4061C167.644 24.3971 167.232 25.5327 166.973 26.8066L167.952 27.0059C168.193 25.8214 168.572 24.7904 169.083 23.9064L168.217 23.4061ZM166.973 26.8049C166.715 28.0501 166.587 29.376 166.587 30.7812H167.587C167.587 29.4365 167.71 28.179 167.952 27.0076L166.973 26.8049ZM206.36 40.3125L206.015 39.951L206.011 39.9549L206.36 40.3125ZM213.766 40.3125L213.417 40.6701L213.421 40.674L213.766 40.3125ZM213.766 47L213.421 46.6385L213.417 46.6424L213.766 47ZM206.36 47L206.011 47.3576L206.015 47.3615L206.36 47ZM205.485 43.6562C205.485 42.4514 205.893 41.4677 206.709 40.6701L206.011 39.9549C204.993 40.949 204.485 42.1944 204.485 43.6562H205.485ZM206.705 40.674C207.533 39.8835 208.64 39.4688 210.079 39.4688V38.4688C208.434 38.4688 207.062 38.9499 206.015 39.951L206.705 40.674ZM210.079 39.4688C211.518 39.4688 212.612 39.8835 213.417 40.6701L214.116 39.9549C213.087 38.9498 211.723 38.4688 210.079 38.4688V39.4688ZM213.421 40.674C214.256 41.4725 214.673 42.4551 214.673 43.6562H215.673C215.673 42.1907 215.151 40.9441 214.112 39.951L213.421 40.674ZM214.673 43.6562C214.673 44.8574 214.256 45.84 213.421 46.6385L214.112 47.3615C215.151 46.3684 215.673 45.1218 215.673 43.6562H214.673ZM213.417 46.6424C212.612 47.429 211.518 47.8438 210.079 47.8438V48.8438C211.723 48.8438 213.087 48.3627 214.116 47.3576L213.417 46.6424ZM210.079 47.8438C208.64 47.8438 207.533 47.429 206.705 46.6385L206.015 47.3615C207.062 48.3626 208.434 48.8438 210.079 48.8438V47.8438ZM206.709 46.6424C205.893 45.8448 205.485 44.8611 205.485 43.6562H204.485C204.485 45.1181 204.993 46.3635 206.011 47.3576L206.709 46.6424Z" fill="black"/>
</svg>
