<svg width="224" height="70" viewBox="0 0 224 70" fill="none" xmlns="http://www.w3.org/2000/svg">
<g filter="url(#filter0_d_1_2)">
<path d="M23.4688 40.625V0H32.5312V48H24.375L23.4688 40.625ZM2.09375 31.5V30.8438C2.09375 28.2604 2.38542 25.9167 2.96875 23.8125C3.55208 21.6875 4.40625 19.8646 5.53125 18.3438C6.65625 16.8229 8.04167 15.6458 9.6875 14.8125C11.3333 13.9792 13.2083 13.5625 15.3125 13.5625C17.2917 13.5625 19.0208 13.9792 20.5 14.8125C22 15.6458 23.2708 16.8333 24.3125 18.375C25.375 19.8958 26.2292 21.6979 26.875 23.7812C27.5208 25.8438 27.9896 28.1042 28.2812 30.5625V32C27.9896 34.3542 27.5208 36.5417 26.875 38.5625C26.2292 40.5833 25.375 42.3542 24.3125 43.875C23.2708 45.375 22 46.5417 20.5 47.375C19 48.2083 17.25 48.625 15.25 48.625C13.1458 48.625 11.2708 48.1979 9.625 47.3438C8 46.4896 6.625 45.2917 5.5 43.75C4.39583 42.2083 3.55208 40.3958 2.96875 38.3125C2.38542 36.2292 2.09375 33.9583 2.09375 31.5ZM11.0938 30.8438V31.5C11.0938 32.8958 11.1979 34.1979 11.4062 35.4062C11.6354 36.6146 12 37.6875 12.5 38.625C13.0208 39.5417 13.6875 40.2604 14.5 40.7812C15.3333 41.2812 16.3438 41.5312 17.5312 41.5312C19.0729 41.5312 20.3438 41.1875 21.3438 40.5C22.3438 39.7917 23.1042 38.8229 23.625 37.5938C24.1667 36.3646 24.4792 34.9479 24.5625 33.3438V29.25C24.5 27.9375 24.3125 26.7604 24 25.7188C23.7083 24.6562 23.2708 23.75 22.6875 23C22.125 22.25 21.4167 21.6667 20.5625 21.25C19.7292 20.8333 18.7396 20.625 17.5938 20.625C16.4271 20.625 15.4271 20.8958 14.5938 21.4375C13.7604 21.9583 13.0833 22.6771 12.5625 23.5938C12.0625 24.5104 11.6875 25.5938 11.4375 26.8438C11.2083 28.0729 11.0938 29.4062 11.0938 30.8438ZM54.2925 40.375V25.3125C54.2925 24.2292 54.1154 23.3021 53.7612 22.5312C53.4071 21.7396 52.855 21.125 52.105 20.6875C51.3758 20.25 50.4279 20.0312 49.2612 20.0312C48.2612 20.0312 47.3967 20.2083 46.6675 20.5625C45.9383 20.8958 45.3758 21.3854 44.98 22.0312C44.5842 22.6562 44.3862 23.3958 44.3862 24.25H35.3862C35.3862 22.8125 35.7196 21.4479 36.3862 20.1562C37.0529 18.8646 38.0217 17.7292 39.2925 16.75C40.5633 15.75 42.0737 14.9688 43.8237 14.4062C45.5946 13.8438 47.5737 13.5625 49.7612 13.5625C52.3862 13.5625 54.7196 14 56.7612 14.875C58.8029 15.75 60.4071 17.0625 61.5737 18.8125C62.7612 20.5625 63.355 22.75 63.355 25.375V39.8438C63.355 41.6979 63.4696 43.2188 63.6987 44.4062C63.9279 45.5729 64.2612 46.5938 64.6987 47.4688V48H55.605C55.1675 47.0833 54.8342 45.9375 54.605 44.5625C54.3967 43.1667 54.2925 41.7708 54.2925 40.375ZM55.48 27.4062L55.5425 32.5H50.5112C49.3237 32.5 48.2925 32.6354 47.4175 32.9062C46.5425 33.1771 45.8237 33.5625 45.2612 34.0625C44.6987 34.5417 44.2821 35.1042 44.0112 35.75C43.7612 36.3958 43.6362 37.1042 43.6362 37.875C43.6362 38.6458 43.8133 39.3438 44.1675 39.9688C44.5217 40.5729 45.0321 41.0521 45.6987 41.4062C46.3654 41.7396 47.1467 41.9062 48.0425 41.9062C49.3967 41.9062 50.5737 41.6354 51.5737 41.0938C52.5737 40.5521 53.3446 39.8854 53.8862 39.0938C54.4487 38.3021 54.7404 37.5521 54.7612 36.8438L57.1362 40.6562C56.8029 41.5104 56.3446 42.3958 55.7612 43.3125C55.1987 44.2292 54.48 45.0938 53.605 45.9062C52.73 46.6979 51.6779 47.3542 50.4487 47.875C49.2196 48.375 47.7612 48.625 46.0737 48.625C43.9279 48.625 41.98 48.1979 40.23 47.3438C38.5008 46.4688 37.1258 45.2708 36.105 43.75C35.105 42.2083 34.605 40.4583 34.605 38.5C34.605 36.7292 34.9383 35.1562 35.605 33.7812C36.2717 32.4062 37.2508 31.25 38.5425 30.3125C39.855 29.3542 41.4904 28.6354 43.4487 28.1562C45.4071 27.6562 47.6779 27.4062 50.2612 27.4062H55.48ZM85.0537 38.6562C85.0537 38.0104 84.8662 37.4271 84.4912 36.9062C84.1162 36.3854 83.4183 35.9062 82.3975 35.4688C81.3975 35.0104 79.9496 34.5938 78.0537 34.2188C76.3454 33.8438 74.7517 33.375 73.2725 32.8125C71.8142 32.2292 70.5433 31.5312 69.46 30.7188C68.3975 29.9062 67.5642 28.9479 66.96 27.8438C66.3558 26.7188 66.0537 25.4375 66.0537 24C66.0537 22.5833 66.3558 21.25 66.96 20C67.585 18.75 68.4704 17.6458 69.6162 16.6875C70.7829 15.7083 72.1996 14.9479 73.8662 14.4062C75.5537 13.8438 77.4496 13.5625 79.5537 13.5625C82.4912 13.5625 85.0121 14.0312 87.1162 14.9688C89.2412 15.9062 90.8662 17.1979 91.9912 18.8438C93.1371 20.4688 93.71 22.3229 93.71 24.4062H84.71C84.71 23.5312 84.5225 22.75 84.1475 22.0625C83.7933 21.3542 83.2308 20.8021 82.46 20.4062C81.71 19.9896 80.7308 19.7812 79.5225 19.7812C78.5225 19.7812 77.6579 19.9583 76.9287 20.3125C76.1996 20.6458 75.6371 21.1042 75.2412 21.6875C74.8662 22.25 74.6787 22.875 74.6787 23.5625C74.6787 24.0833 74.7829 24.5521 74.9912 24.9688C75.2204 25.3646 75.585 25.7292 76.085 26.0625C76.585 26.3958 77.2308 26.7083 78.0225 27C78.835 27.2708 79.835 27.5208 81.0225 27.75C83.46 28.25 85.6371 28.9062 87.5537 29.7188C89.4704 30.5104 90.9912 31.5938 92.1162 32.9688C93.2412 34.3229 93.8037 36.1042 93.8037 38.3125C93.8037 39.8125 93.4704 41.1875 92.8037 42.4375C92.1371 43.6875 91.1787 44.7812 89.9287 45.7188C88.6787 46.6354 87.1787 47.3542 85.4287 47.875C83.6996 48.375 81.7517 48.625 79.585 48.625C76.4392 48.625 73.7725 48.0625 71.585 46.9375C69.4183 45.8125 67.7725 44.3854 66.6475 42.6562C65.5433 40.9062 64.9912 39.1146 64.9912 37.2812H73.5225C73.5642 38.5104 73.8767 39.5 74.46 40.25C75.0642 41 75.8246 41.5417 76.7412 41.875C77.6787 42.2083 78.6892 42.375 79.7725 42.375C80.9392 42.375 81.9079 42.2188 82.6787 41.9062C83.4496 41.5729 84.0329 41.1354 84.4287 40.5938C84.8454 40.0312 85.0537 39.3854 85.0537 38.6562ZM104.909 0V48H95.9088V0H104.909ZM103.628 29.9062H101.159C101.18 27.5521 101.492 25.3854 102.096 23.4062C102.7 21.4062 103.565 19.6771 104.69 18.2188C105.815 16.7396 107.159 15.5938 108.721 14.7812C110.305 13.9688 112.055 13.5625 113.971 13.5625C115.638 13.5625 117.148 13.8021 118.503 14.2812C119.878 14.7396 121.055 15.4896 122.034 16.5312C123.034 17.5521 123.805 18.8958 124.346 20.5625C124.888 22.2292 125.159 24.25 125.159 26.625V48H116.096V26.5625C116.096 25.0625 115.878 23.8854 115.44 23.0312C115.023 22.1562 114.409 21.5417 113.596 21.1875C112.805 20.8125 111.825 20.625 110.659 20.625C109.367 20.625 108.263 20.8646 107.346 21.3438C106.45 21.8229 105.732 22.4896 105.19 23.3438C104.648 24.1771 104.253 25.1562 104.003 26.2812C103.753 27.4062 103.628 28.6146 103.628 29.9062ZM149.889 14.1875H158.045V46.875C158.045 49.9583 157.357 52.5729 155.982 54.7188C154.628 56.8854 152.732 58.5208 150.295 59.625C147.857 60.75 145.024 61.3125 141.795 61.3125C140.378 61.3125 138.878 61.125 137.295 60.75C135.732 60.375 134.232 59.7917 132.795 59C131.378 58.2083 130.191 57.2083 129.232 56L133.201 50.6875C134.243 51.8958 135.451 52.8333 136.826 53.5C138.201 54.1875 139.722 54.5312 141.389 54.5312C143.014 54.5312 144.389 54.2292 145.514 53.625C146.639 53.0417 147.503 52.1771 148.107 51.0312C148.712 49.9062 149.014 48.5417 149.014 46.9375V22L149.889 14.1875ZM127.139 31.5V30.8438C127.139 28.2604 127.451 25.9167 128.076 23.8125C128.722 21.6875 129.628 19.8646 130.795 18.3438C131.982 16.8229 133.42 15.6458 135.107 14.8125C136.795 13.9792 138.701 13.5625 140.826 13.5625C143.076 13.5625 144.962 13.9792 146.482 14.8125C148.003 15.6458 149.253 16.8333 150.232 18.375C151.212 19.8958 151.972 21.6979 152.514 23.7812C153.076 25.8438 153.514 28.1042 153.826 30.5625V32C153.514 34.3542 153.045 36.5417 152.42 38.5625C151.795 40.5833 150.972 42.3542 149.951 43.875C148.93 45.375 147.66 46.5417 146.139 47.375C144.639 48.2083 142.847 48.625 140.764 48.625C138.68 48.625 136.795 48.1979 135.107 47.3438C133.441 46.4896 132.014 45.2917 130.826 43.75C129.639 42.2083 128.722 40.3958 128.076 38.3125C127.451 36.2292 127.139 33.9583 127.139 31.5ZM136.139 30.8438V31.5C136.139 32.8958 136.274 34.1979 136.545 35.4062C136.816 36.6146 137.232 37.6875 137.795 38.625C138.378 39.5417 139.097 40.2604 139.951 40.7812C140.826 41.2812 141.857 41.5312 143.045 41.5312C144.691 41.5312 146.035 41.1875 147.076 40.5C148.118 39.7917 148.899 38.8229 149.42 37.5938C149.941 36.3646 150.243 34.9479 150.326 33.3438V29.25C150.285 27.9375 150.107 26.7604 149.795 25.7188C149.482 24.6562 149.045 23.75 148.482 23C147.92 22.25 147.191 21.6667 146.295 21.25C145.399 20.8333 144.337 20.625 143.107 20.625C141.92 20.625 140.889 20.8958 140.014 21.4375C139.16 21.9583 138.441 22.6771 137.857 23.5938C137.295 24.5104 136.868 25.5938 136.576 26.8438C136.285 28.0729 136.139 29.4062 136.139 30.8438ZM160.087 31.4375V30.7812C160.087 28.3021 160.442 26.0208 161.15 23.9375C161.858 21.8333 162.89 20.0104 164.244 18.4688C165.598 16.9271 167.265 15.7292 169.244 14.875C171.223 14 173.494 13.5625 176.056 13.5625C178.619 13.5625 180.9 14 182.9 14.875C184.9 15.7292 186.577 16.9271 187.931 18.4688C189.306 20.0104 190.348 21.8333 191.056 23.9375C191.765 26.0208 192.119 28.3021 192.119 30.7812V31.4375C192.119 33.8958 191.765 36.1771 191.056 38.2812C190.348 40.3646 189.306 42.1875 187.931 43.75C186.577 45.2917 184.91 46.4896 182.931 47.3438C180.952 48.1979 178.681 48.625 176.119 48.625C173.556 48.625 171.275 48.1979 169.275 47.3438C167.296 46.4896 165.619 45.2917 164.244 43.75C162.89 42.1875 161.858 40.3646 161.15 38.2812C160.442 36.1771 160.087 33.8958 160.087 31.4375ZM169.087 30.7812V31.4375C169.087 32.8542 169.212 34.1771 169.462 35.4062C169.712 36.6354 170.108 37.7188 170.65 38.6562C171.212 39.5729 171.942 40.2917 172.837 40.8125C173.733 41.3333 174.827 41.5938 176.119 41.5938C177.369 41.5938 178.442 41.3333 179.337 40.8125C180.233 40.2917 180.952 39.5729 181.494 38.6562C182.035 37.7188 182.431 36.6354 182.681 35.4062C182.952 34.1771 183.087 32.8542 183.087 31.4375V30.7812C183.087 29.4062 182.952 28.1146 182.681 26.9062C182.431 25.6771 182.025 24.5938 181.462 23.6562C180.921 22.6979 180.202 21.9479 179.306 21.4062C178.41 20.8646 177.327 20.5938 176.056 20.5938C174.785 20.5938 173.702 20.8646 172.806 21.4062C171.931 21.9479 171.212 22.6979 170.65 23.6562C170.108 24.5938 169.712 25.6771 169.462 26.9062C169.212 28.1146 169.087 29.4062 169.087 30.7812Z" fill="white"/>
<path d="M206.985 43.6562C206.985 42.3229 207.443 41.2083 208.36 40.3125C209.298 39.4167 210.537 38.9688 212.079 38.9688C213.62 38.9688 214.85 39.4167 215.766 40.3125C216.704 41.2083 217.173 42.3229 217.173 43.6562C217.173 44.9896 216.704 46.1042 215.766 47C214.85 47.8958 213.62 48.3438 212.079 48.3438C210.537 48.3438 209.298 47.8958 208.36 47C207.443 46.1042 206.985 44.9896 206.985 43.6562Z" fill="#D53F8C"/>
</g>
<defs>
<filter id="filter0_d_1_2" x="0.09375" y="0" width="223.079" height="69.3125" filterUnits="userSpaceOnUse" color-interpolation-filters="sRGB">
<feFlood flood-opacity="0" result="BackgroundImageFix"/>
<feColorMatrix in="SourceAlpha" type="matrix" values="0 0 0 0 0 0 0 0 0 0 0 0 0 0 0 0 0 0 127 0" result="hardAlpha"/>
<feOffset dx="2" dy="4"/>
<feGaussianBlur stdDeviation="2"/>
<feComposite in2="hardAlpha" operator="out"/>
<feColorMatrix type="matrix" values="0 0 0 0 0 0 0 0 0 0 0 0 0 0 0 0 0 0 0.25 0"/>
<feBlend mode="normal" in2="BackgroundImageFix" result="effect1_dropShadow_1_2"/>
<feBlend mode="normal" in="SourceGraphic" in2="effect1_dropShadow_1_2" result="shape"/>
</filter>
</defs>
</svg>
