<svg width="315" height="205" viewBox="0 0 315 205" fill="none" xmlns="http://www.w3.org/2000/svg">
<rect width="315" height="205" fill="#181B23"/>
<path d="M72.4688 78.625V38H81.5312V86H73.375L72.4688 78.625ZM51.0938 69.5V68.8438C51.0938 66.2604 51.3854 63.9167 51.9688 61.8125C52.5521 59.6875 53.4062 57.8646 54.5312 56.3438C55.6562 54.8229 57.0417 53.6458 58.6875 52.8125C60.3333 51.9792 62.2083 51.5625 64.3125 51.5625C66.2917 51.5625 68.0208 51.9792 69.5 52.8125C71 53.6458 72.2708 54.8333 73.3125 56.375C74.375 57.8958 75.2292 59.6979 75.875 61.7812C76.5208 63.8438 76.9896 66.1042 77.2812 68.5625V70C76.9896 72.3542 76.5208 74.5417 75.875 76.5625C75.2292 78.5833 74.375 80.3542 73.3125 81.875C72.2708 83.375 71 84.5417 69.5 85.375C68 86.2083 66.25 86.625 64.25 86.625C62.1458 86.625 60.2708 86.1979 58.625 85.3438C57 84.4896 55.625 83.2917 54.5 81.75C53.3958 80.2083 52.5521 78.3958 51.9688 76.3125C51.3854 74.2292 51.0938 71.9583 51.0938 69.5ZM60.0938 68.8438V69.5C60.0938 70.8958 60.1979 72.1979 60.4062 73.4062C60.6354 74.6146 61 75.6875 61.5 76.625C62.0208 77.5417 62.6875 78.2604 63.5 78.7812C64.3333 79.2812 65.3438 79.5312 66.5312 79.5312C68.0729 79.5312 69.3438 79.1875 70.3438 78.5C71.3438 77.7917 72.1042 76.8229 72.625 75.5938C73.1667 74.3646 73.4792 72.9479 73.5625 71.3438V67.25C73.5 65.9375 73.3125 64.7604 73 63.7188C72.7083 62.6562 72.2708 61.75 71.6875 61C71.125 60.25 70.4167 59.6667 69.5625 59.25C68.7292 58.8333 67.7396 58.625 66.5938 58.625C65.4271 58.625 64.4271 58.8958 63.5938 59.4375C62.7604 59.9583 62.0833 60.6771 61.5625 61.5938C61.0625 62.5104 60.6875 63.5938 60.4375 64.8438C60.2083 66.0729 60.0938 67.4062 60.0938 68.8438ZM103.292 78.375V63.3125C103.292 62.2292 103.115 61.3021 102.761 60.5312C102.407 59.7396 101.855 59.125 101.105 58.6875C100.376 58.25 99.4279 58.0312 98.2612 58.0312C97.2612 58.0312 96.3967 58.2083 95.6675 58.5625C94.9383 58.8958 94.3758 59.3854 93.98 60.0312C93.5842 60.6562 93.3862 61.3958 93.3862 62.25H84.3862C84.3862 60.8125 84.7196 59.4479 85.3862 58.1562C86.0529 56.8646 87.0217 55.7292 88.2925 54.75C89.5633 53.75 91.0737 52.9688 92.8237 52.4062C94.5946 51.8438 96.5737 51.5625 98.7612 51.5625C101.386 51.5625 103.72 52 105.761 52.875C107.803 53.75 109.407 55.0625 110.574 56.8125C111.761 58.5625 112.355 60.75 112.355 63.375V77.8438C112.355 79.6979 112.47 81.2188 112.699 82.4062C112.928 83.5729 113.261 84.5938 113.699 85.4688V86H104.605C104.167 85.0833 103.834 83.9375 103.605 82.5625C103.397 81.1667 103.292 79.7708 103.292 78.375ZM104.48 65.4062L104.542 70.5H99.5112C98.3237 70.5 97.2925 70.6354 96.4175 70.9062C95.5425 71.1771 94.8237 71.5625 94.2612 72.0625C93.6987 72.5417 93.2821 73.1042 93.0112 73.75C92.7612 74.3958 92.6362 75.1042 92.6362 75.875C92.6362 76.6458 92.8133 77.3438 93.1675 77.9688C93.5217 78.5729 94.0321 79.0521 94.6987 79.4062C95.3654 79.7396 96.1467 79.9062 97.0425 79.9062C98.3967 79.9062 99.5737 79.6354 100.574 79.0938C101.574 78.5521 102.345 77.8854 102.886 77.0938C103.449 76.3021 103.74 75.5521 103.761 74.8438L106.136 78.6562C105.803 79.5104 105.345 80.3958 104.761 81.3125C104.199 82.2292 103.48 83.0938 102.605 83.9062C101.73 84.6979 100.678 85.3542 99.4487 85.875C98.2196 86.375 96.7612 86.625 95.0737 86.625C92.9279 86.625 90.98 86.1979 89.23 85.3438C87.5008 84.4688 86.1258 83.2708 85.105 81.75C84.105 80.2083 83.605 78.4583 83.605 76.5C83.605 74.7292 83.9383 73.1562 84.605 71.7812C85.2717 70.4062 86.2508 69.25 87.5425 68.3125C88.855 67.3542 90.4904 66.6354 92.4487 66.1562C94.4071 65.6562 96.6779 65.4062 99.2612 65.4062H104.48ZM134.054 76.6562C134.054 76.0104 133.866 75.4271 133.491 74.9062C133.116 74.3854 132.418 73.9062 131.397 73.4688C130.397 73.0104 128.95 72.5938 127.054 72.2188C125.345 71.8438 123.752 71.375 122.272 70.8125C120.814 70.2292 119.543 69.5312 118.46 68.7188C117.397 67.9062 116.564 66.9479 115.96 65.8438C115.356 64.7188 115.054 63.4375 115.054 62C115.054 60.5833 115.356 59.25 115.96 58C116.585 56.75 117.47 55.6458 118.616 54.6875C119.783 53.7083 121.2 52.9479 122.866 52.4062C124.554 51.8438 126.45 51.5625 128.554 51.5625C131.491 51.5625 134.012 52.0312 136.116 52.9688C138.241 53.9062 139.866 55.1979 140.991 56.8438C142.137 58.4688 142.71 60.3229 142.71 62.4062H133.71C133.71 61.5312 133.522 60.75 133.147 60.0625C132.793 59.3542 132.231 58.8021 131.46 58.4062C130.71 57.9896 129.731 57.7812 128.522 57.7812C127.522 57.7812 126.658 57.9583 125.929 58.3125C125.2 58.6458 124.637 59.1042 124.241 59.6875C123.866 60.25 123.679 60.875 123.679 61.5625C123.679 62.0833 123.783 62.5521 123.991 62.9688C124.22 63.3646 124.585 63.7292 125.085 64.0625C125.585 64.3958 126.231 64.7083 127.022 65C127.835 65.2708 128.835 65.5208 130.022 65.75C132.46 66.25 134.637 66.9062 136.554 67.7188C138.47 68.5104 139.991 69.5938 141.116 70.9688C142.241 72.3229 142.804 74.1042 142.804 76.3125C142.804 77.8125 142.47 79.1875 141.804 80.4375C141.137 81.6875 140.179 82.7812 138.929 83.7188C137.679 84.6354 136.179 85.3542 134.429 85.875C132.7 86.375 130.752 86.625 128.585 86.625C125.439 86.625 122.772 86.0625 120.585 84.9375C118.418 83.8125 116.772 82.3854 115.647 80.6562C114.543 78.9062 113.991 77.1146 113.991 75.2812H122.522C122.564 76.5104 122.877 77.5 123.46 78.25C124.064 79 124.825 79.5417 125.741 79.875C126.679 80.2083 127.689 80.375 128.772 80.375C129.939 80.375 130.908 80.2188 131.679 79.9062C132.45 79.5729 133.033 79.1354 133.429 78.5938C133.845 78.0312 134.054 77.3854 134.054 76.6562ZM153.909 38V86H144.909V38H153.909ZM152.628 67.9062H150.159C150.18 65.5521 150.492 63.3854 151.096 61.4062C151.7 59.4062 152.565 57.6771 153.69 56.2188C154.815 54.7396 156.159 53.5938 157.721 52.7812C159.305 51.9688 161.055 51.5625 162.971 51.5625C164.638 51.5625 166.148 51.8021 167.503 52.2812C168.878 52.7396 170.055 53.4896 171.034 54.5312C172.034 55.5521 172.805 56.8958 173.346 58.5625C173.888 60.2292 174.159 62.25 174.159 64.625V86H165.096V64.5625C165.096 63.0625 164.878 61.8854 164.44 61.0312C164.023 60.1562 163.409 59.5417 162.596 59.1875C161.805 58.8125 160.825 58.625 159.659 58.625C158.367 58.625 157.263 58.8646 156.346 59.3438C155.45 59.8229 154.732 60.4896 154.19 61.3438C153.648 62.1771 153.253 63.1562 153.003 64.2812C152.753 65.4062 152.628 66.6146 152.628 67.9062ZM198.889 52.1875H207.045V84.875C207.045 87.9583 206.357 90.5729 204.982 92.7188C203.628 94.8854 201.732 96.5208 199.295 97.625C196.857 98.75 194.024 99.3125 190.795 99.3125C189.378 99.3125 187.878 99.125 186.295 98.75C184.732 98.375 183.232 97.7917 181.795 97C180.378 96.2083 179.191 95.2083 178.232 94L182.201 88.6875C183.243 89.8958 184.451 90.8333 185.826 91.5C187.201 92.1875 188.722 92.5312 190.389 92.5312C192.014 92.5312 193.389 92.2292 194.514 91.625C195.639 91.0417 196.503 90.1771 197.107 89.0312C197.712 87.9062 198.014 86.5417 198.014 84.9375V60L198.889 52.1875ZM176.139 69.5V68.8438C176.139 66.2604 176.451 63.9167 177.076 61.8125C177.722 59.6875 178.628 57.8646 179.795 56.3438C180.982 54.8229 182.42 53.6458 184.107 52.8125C185.795 51.9792 187.701 51.5625 189.826 51.5625C192.076 51.5625 193.962 51.9792 195.482 52.8125C197.003 53.6458 198.253 54.8333 199.232 56.375C200.212 57.8958 200.972 59.6979 201.514 61.7812C202.076 63.8438 202.514 66.1042 202.826 68.5625V70C202.514 72.3542 202.045 74.5417 201.42 76.5625C200.795 78.5833 199.972 80.3542 198.951 81.875C197.93 83.375 196.66 84.5417 195.139 85.375C193.639 86.2083 191.847 86.625 189.764 86.625C187.68 86.625 185.795 86.1979 184.107 85.3438C182.441 84.4896 181.014 83.2917 179.826 81.75C178.639 80.2083 177.722 78.3958 177.076 76.3125C176.451 74.2292 176.139 71.9583 176.139 69.5ZM185.139 68.8438V69.5C185.139 70.8958 185.274 72.1979 185.545 73.4062C185.816 74.6146 186.232 75.6875 186.795 76.625C187.378 77.5417 188.097 78.2604 188.951 78.7812C189.826 79.2812 190.857 79.5312 192.045 79.5312C193.691 79.5312 195.035 79.1875 196.076 78.5C197.118 77.7917 197.899 76.8229 198.42 75.5938C198.941 74.3646 199.243 72.9479 199.326 71.3438V67.25C199.285 65.9375 199.107 64.7604 198.795 63.7188C198.482 62.6562 198.045 61.75 197.482 61C196.92 60.25 196.191 59.6667 195.295 59.25C194.399 58.8333 193.337 58.625 192.107 58.625C190.92 58.625 189.889 58.8958 189.014 59.4375C188.16 59.9583 187.441 60.6771 186.857 61.5938C186.295 62.5104 185.868 63.5938 185.576 64.8438C185.285 66.0729 185.139 67.4062 185.139 68.8438ZM209.087 69.4375V68.7812C209.087 66.3021 209.442 64.0208 210.15 61.9375C210.858 59.8333 211.89 58.0104 213.244 56.4688C214.598 54.9271 216.265 53.7292 218.244 52.875C220.223 52 222.494 51.5625 225.056 51.5625C227.619 51.5625 229.9 52 231.9 52.875C233.9 53.7292 235.577 54.9271 236.931 56.4688C238.306 58.0104 239.348 59.8333 240.056 61.9375C240.765 64.0208 241.119 66.3021 241.119 68.7812V69.4375C241.119 71.8958 240.765 74.1771 240.056 76.2812C239.348 78.3646 238.306 80.1875 236.931 81.75C235.577 83.2917 233.91 84.4896 231.931 85.3438C229.952 86.1979 227.681 86.625 225.119 86.625C222.556 86.625 220.275 86.1979 218.275 85.3438C216.296 84.4896 214.619 83.2917 213.244 81.75C211.89 80.1875 210.858 78.3646 210.15 76.2812C209.442 74.1771 209.087 71.8958 209.087 69.4375ZM218.087 68.7812V69.4375C218.087 70.8542 218.212 72.1771 218.462 73.4062C218.712 74.6354 219.108 75.7188 219.65 76.6562C220.212 77.5729 220.942 78.2917 221.837 78.8125C222.733 79.3333 223.827 79.5938 225.119 79.5938C226.369 79.5938 227.442 79.3333 228.337 78.8125C229.233 78.2917 229.952 77.5729 230.494 76.6562C231.035 75.7188 231.431 74.6354 231.681 73.4062C231.952 72.1771 232.087 70.8542 232.087 69.4375V68.7812C232.087 67.4062 231.952 66.1146 231.681 64.9062C231.431 63.6771 231.025 62.5938 230.462 61.6562C229.921 60.6979 229.202 59.9479 228.306 59.4062C227.41 58.8646 226.327 58.5938 225.056 58.5938C223.785 58.5938 222.702 58.8646 221.806 59.4062C220.931 59.9479 220.212 60.6979 219.65 61.6562C219.108 62.5938 218.712 63.6771 218.462 64.9062C218.212 66.1146 218.087 67.4062 218.087 68.7812Z" fill="white"/>
<path d="M255.985 81.6562C255.985 80.3229 256.443 79.2083 257.36 78.3125C258.298 77.4167 259.537 76.9688 261.079 76.9688C262.62 76.9688 263.85 77.4167 264.766 78.3125C265.704 79.2083 266.173 80.3229 266.173 81.6562C266.173 82.9896 265.704 84.1042 264.766 85C263.85 85.8958 262.62 86.3438 261.079 86.3438C259.537 86.3438 258.298 85.8958 257.36 85C256.443 84.1042 255.985 82.9896 255.985 81.6562Z" fill="#D53F8C"/>
</svg>
