<svg width="234" height="77" viewBox="0 0 234 77" fill="none" xmlns="http://www.w3.org/2000/svg">
<path d="M0 1.94937H234V77H0V1.94937Z" fill="#181B23"/>
<path d="M29.4688 51.625V11H38.5312V59H30.375L29.4688 51.625ZM8.09375 42.5V41.8438C8.09375 39.2604 8.38542 36.9167 8.96875 34.8125C9.55208 32.6875 10.4062 30.8646 11.5312 29.3438C12.6562 27.8229 14.0417 26.6458 15.6875 25.8125C17.3333 24.9792 19.2083 24.5625 21.3125 24.5625C23.2917 24.5625 25.0208 24.9792 26.5 25.8125C28 26.6458 29.2708 27.8333 30.3125 29.375C31.375 30.8958 32.2292 32.6979 32.875 34.7812C33.5208 36.8438 33.9896 39.1042 34.2812 41.5625V43C33.9896 45.3542 33.5208 47.5417 32.875 49.5625C32.2292 51.5833 31.375 53.3542 30.3125 54.875C29.2708 56.375 28 57.5417 26.5 58.375C25 59.2083 23.25 59.625 21.25 59.625C19.1458 59.625 17.2708 59.1979 15.625 58.3438C14 57.4896 12.625 56.2917 11.5 54.75C10.3958 53.2083 9.55208 51.3958 8.96875 49.3125C8.38542 47.2292 8.09375 44.9583 8.09375 42.5ZM17.0938 41.8438V42.5C17.0938 43.8958 17.1979 45.1979 17.4062 46.4062C17.6354 47.6146 18 48.6875 18.5 49.625C19.0208 50.5417 19.6875 51.2604 20.5 51.7812C21.3333 52.2812 22.3438 52.5312 23.5312 52.5312C25.0729 52.5312 26.3438 52.1875 27.3438 51.5C28.3438 50.7917 29.1042 49.8229 29.625 48.5938C30.1667 47.3646 30.4792 45.9479 30.5625 44.3438V40.25C30.5 38.9375 30.3125 37.7604 30 36.7188C29.7083 35.6562 29.2708 34.75 28.6875 34C28.125 33.25 27.4167 32.6667 26.5625 32.25C25.7292 31.8333 24.7396 31.625 23.5938 31.625C22.4271 31.625 21.4271 31.8958 20.5938 32.4375C19.7604 32.9583 19.0833 33.6771 18.5625 34.5938C18.0625 35.5104 17.6875 36.5938 17.4375 37.8438C17.2083 39.0729 17.0938 40.4062 17.0938 41.8438ZM60.2925 51.375V36.3125C60.2925 35.2292 60.1154 34.3021 59.7612 33.5312C59.4071 32.7396 58.855 32.125 58.105 31.6875C57.3758 31.25 56.4279 31.0312 55.2612 31.0312C54.2612 31.0312 53.3967 31.2083 52.6675 31.5625C51.9383 31.8958 51.3758 32.3854 50.98 33.0312C50.5842 33.6562 50.3862 34.3958 50.3862 35.25H41.3862C41.3862 33.8125 41.7196 32.4479 42.3862 31.1562C43.0529 29.8646 44.0217 28.7292 45.2925 27.75C46.5633 26.75 48.0737 25.9688 49.8237 25.4062C51.5946 24.8438 53.5737 24.5625 55.7612 24.5625C58.3862 24.5625 60.7196 25 62.7612 25.875C64.8029 26.75 66.4071 28.0625 67.5737 29.8125C68.7612 31.5625 69.355 33.75 69.355 36.375V50.8438C69.355 52.6979 69.4696 54.2188 69.6987 55.4062C69.9279 56.5729 70.2612 57.5938 70.6987 58.4688V59H61.605C61.1675 58.0833 60.8342 56.9375 60.605 55.5625C60.3967 54.1667 60.2925 52.7708 60.2925 51.375ZM61.48 38.4062L61.5425 43.5H56.5112C55.3237 43.5 54.2925 43.6354 53.4175 43.9062C52.5425 44.1771 51.8237 44.5625 51.2612 45.0625C50.6987 45.5417 50.2821 46.1042 50.0112 46.75C49.7612 47.3958 49.6362 48.1042 49.6362 48.875C49.6362 49.6458 49.8133 50.3438 50.1675 50.9688C50.5217 51.5729 51.0321 52.0521 51.6987 52.4062C52.3654 52.7396 53.1467 52.9062 54.0425 52.9062C55.3967 52.9062 56.5737 52.6354 57.5737 52.0938C58.5737 51.5521 59.3446 50.8854 59.8862 50.0938C60.4487 49.3021 60.7404 48.5521 60.7612 47.8438L63.1362 51.6562C62.8029 52.5104 62.3446 53.3958 61.7612 54.3125C61.1987 55.2292 60.48 56.0938 59.605 56.9062C58.73 57.6979 57.6779 58.3542 56.4487 58.875C55.2196 59.375 53.7612 59.625 52.0737 59.625C49.9279 59.625 47.98 59.1979 46.23 58.3438C44.5008 57.4688 43.1258 56.2708 42.105 54.75C41.105 53.2083 40.605 51.4583 40.605 49.5C40.605 47.7292 40.9383 46.1562 41.605 44.7812C42.2717 43.4062 43.2508 42.25 44.5425 41.3125C45.855 40.3542 47.4904 39.6354 49.4487 39.1562C51.4071 38.6562 53.6779 38.4062 56.2612 38.4062H61.48ZM91.0537 49.6562C91.0537 49.0104 90.8662 48.4271 90.4912 47.9062C90.1162 47.3854 89.4183 46.9062 88.3975 46.4688C87.3975 46.0104 85.9496 45.5938 84.0537 45.2188C82.3454 44.8438 80.7517 44.375 79.2725 43.8125C77.8142 43.2292 76.5433 42.5312 75.46 41.7188C74.3975 40.9062 73.5642 39.9479 72.96 38.8438C72.3558 37.7188 72.0537 36.4375 72.0537 35C72.0537 33.5833 72.3558 32.25 72.96 31C73.585 29.75 74.4704 28.6458 75.6162 27.6875C76.7829 26.7083 78.1996 25.9479 79.8662 25.4062C81.5537 24.8438 83.4496 24.5625 85.5537 24.5625C88.4912 24.5625 91.0121 25.0312 93.1162 25.9688C95.2412 26.9062 96.8662 28.1979 97.9912 29.8438C99.1371 31.4688 99.71 33.3229 99.71 35.4062H90.71C90.71 34.5312 90.5225 33.75 90.1475 33.0625C89.7933 32.3542 89.2308 31.8021 88.46 31.4062C87.71 30.9896 86.7308 30.7812 85.5225 30.7812C84.5225 30.7812 83.6579 30.9583 82.9287 31.3125C82.1996 31.6458 81.6371 32.1042 81.2412 32.6875C80.8662 33.25 80.6787 33.875 80.6787 34.5625C80.6787 35.0833 80.7829 35.5521 80.9912 35.9688C81.2204 36.3646 81.585 36.7292 82.085 37.0625C82.585 37.3958 83.2308 37.7083 84.0225 38C84.835 38.2708 85.835 38.5208 87.0225 38.75C89.46 39.25 91.6371 39.9062 93.5537 40.7188C95.4704 41.5104 96.9912 42.5938 98.1162 43.9688C99.2412 45.3229 99.8037 47.1042 99.8037 49.3125C99.8037 50.8125 99.4704 52.1875 98.8037 53.4375C98.1371 54.6875 97.1787 55.7812 95.9287 56.7188C94.6787 57.6354 93.1787 58.3542 91.4287 58.875C89.6996 59.375 87.7517 59.625 85.585 59.625C82.4392 59.625 79.7725 59.0625 77.585 57.9375C75.4183 56.8125 73.7725 55.3854 72.6475 53.6562C71.5433 51.9062 70.9912 50.1146 70.9912 48.2812H79.5225C79.5642 49.5104 79.8767 50.5 80.46 51.25C81.0642 52 81.8246 52.5417 82.7412 52.875C83.6787 53.2083 84.6892 53.375 85.7725 53.375C86.9392 53.375 87.9079 53.2188 88.6787 52.9062C89.4496 52.5729 90.0329 52.1354 90.4287 51.5938C90.8454 51.0312 91.0537 50.3854 91.0537 49.6562ZM110.909 11V59H101.909V11H110.909ZM109.628 40.9062H107.159C107.18 38.5521 107.492 36.3854 108.096 34.4062C108.7 32.4062 109.565 30.6771 110.69 29.2188C111.815 27.7396 113.159 26.5938 114.721 25.7812C116.305 24.9688 118.055 24.5625 119.971 24.5625C121.638 24.5625 123.148 24.8021 124.503 25.2812C125.878 25.7396 127.055 26.4896 128.034 27.5312C129.034 28.5521 129.805 29.8958 130.346 31.5625C130.888 33.2292 131.159 35.25 131.159 37.625V59H122.096V37.5625C122.096 36.0625 121.878 34.8854 121.44 34.0312C121.023 33.1562 120.409 32.5417 119.596 32.1875C118.805 31.8125 117.825 31.625 116.659 31.625C115.367 31.625 114.263 31.8646 113.346 32.3438C112.45 32.8229 111.732 33.4896 111.19 34.3438C110.648 35.1771 110.253 36.1562 110.003 37.2812C109.753 38.4062 109.628 39.6146 109.628 40.9062ZM155.889 25.1875H164.045V57.875C164.045 60.9583 163.357 63.5729 161.982 65.7188C160.628 67.8854 158.732 69.5208 156.295 70.625C153.857 71.75 151.024 72.3125 147.795 72.3125C146.378 72.3125 144.878 72.125 143.295 71.75C141.732 71.375 140.232 70.7917 138.795 70C137.378 69.2083 136.191 68.2083 135.232 67L139.201 61.6875C140.243 62.8958 141.451 63.8333 142.826 64.5C144.201 65.1875 145.722 65.5312 147.389 65.5312C149.014 65.5312 150.389 65.2292 151.514 64.625C152.639 64.0417 153.503 63.1771 154.107 62.0312C154.712 60.9062 155.014 59.5417 155.014 57.9375V33L155.889 25.1875ZM133.139 42.5V41.8438C133.139 39.2604 133.451 36.9167 134.076 34.8125C134.722 32.6875 135.628 30.8646 136.795 29.3438C137.982 27.8229 139.42 26.6458 141.107 25.8125C142.795 24.9792 144.701 24.5625 146.826 24.5625C149.076 24.5625 150.962 24.9792 152.482 25.8125C154.003 26.6458 155.253 27.8333 156.232 29.375C157.212 30.8958 157.972 32.6979 158.514 34.7812C159.076 36.8438 159.514 39.1042 159.826 41.5625V43C159.514 45.3542 159.045 47.5417 158.42 49.5625C157.795 51.5833 156.972 53.3542 155.951 54.875C154.93 56.375 153.66 57.5417 152.139 58.375C150.639 59.2083 148.847 59.625 146.764 59.625C144.68 59.625 142.795 59.1979 141.107 58.3438C139.441 57.4896 138.014 56.2917 136.826 54.75C135.639 53.2083 134.722 51.3958 134.076 49.3125C133.451 47.2292 133.139 44.9583 133.139 42.5ZM142.139 41.8438V42.5C142.139 43.8958 142.274 45.1979 142.545 46.4062C142.816 47.6146 143.232 48.6875 143.795 49.625C144.378 50.5417 145.097 51.2604 145.951 51.7812C146.826 52.2812 147.857 52.5312 149.045 52.5312C150.691 52.5312 152.035 52.1875 153.076 51.5C154.118 50.7917 154.899 49.8229 155.42 48.5938C155.941 47.3646 156.243 45.9479 156.326 44.3438V40.25C156.285 38.9375 156.107 37.7604 155.795 36.7188C155.482 35.6562 155.045 34.75 154.482 34C153.92 33.25 153.191 32.6667 152.295 32.25C151.399 31.8333 150.337 31.625 149.107 31.625C147.92 31.625 146.889 31.8958 146.014 32.4375C145.16 32.9583 144.441 33.6771 143.857 34.5938C143.295 35.5104 142.868 36.5938 142.576 37.8438C142.285 39.0729 142.139 40.4062 142.139 41.8438ZM166.087 42.4375V41.7812C166.087 39.3021 166.442 37.0208 167.15 34.9375C167.858 32.8333 168.89 31.0104 170.244 29.4688C171.598 27.9271 173.265 26.7292 175.244 25.875C177.223 25 179.494 24.5625 182.056 24.5625C184.619 24.5625 186.9 25 188.9 25.875C190.9 26.7292 192.577 27.9271 193.931 29.4688C195.306 31.0104 196.348 32.8333 197.056 34.9375C197.765 37.0208 198.119 39.3021 198.119 41.7812V42.4375C198.119 44.8958 197.765 47.1771 197.056 49.2812C196.348 51.3646 195.306 53.1875 193.931 54.75C192.577 56.2917 190.91 57.4896 188.931 58.3438C186.952 59.1979 184.681 59.625 182.119 59.625C179.556 59.625 177.275 59.1979 175.275 58.3438C173.296 57.4896 171.619 56.2917 170.244 54.75C168.89 53.1875 167.858 51.3646 167.15 49.2812C166.442 47.1771 166.087 44.8958 166.087 42.4375ZM175.087 41.7812V42.4375C175.087 43.8542 175.212 45.1771 175.462 46.4062C175.712 47.6354 176.108 48.7188 176.65 49.6562C177.212 50.5729 177.942 51.2917 178.837 51.8125C179.733 52.3333 180.827 52.5938 182.119 52.5938C183.369 52.5938 184.442 52.3333 185.337 51.8125C186.233 51.2917 186.952 50.5729 187.494 49.6562C188.035 48.7188 188.431 47.6354 188.681 46.4062C188.952 45.1771 189.087 43.8542 189.087 42.4375V41.7812C189.087 40.4062 188.952 39.1146 188.681 37.9062C188.431 36.6771 188.025 35.5938 187.462 34.6562C186.921 33.6979 186.202 32.9479 185.306 32.4062C184.41 31.8646 183.327 31.5938 182.056 31.5938C180.785 31.5938 179.702 31.8646 178.806 32.4062C177.931 32.9479 177.212 33.6979 176.65 34.6562C176.108 35.5938 175.712 36.6771 175.462 37.9062C175.212 39.1146 175.087 40.4062 175.087 41.7812Z" fill="white"/>
<path d="M212.985 54.6562C212.985 53.3229 213.443 52.2083 214.36 51.3125C215.298 50.4167 216.537 49.9688 218.079 49.9688C219.62 49.9688 220.85 50.4167 221.766 51.3125C222.704 52.2083 223.173 53.3229 223.173 54.6562C223.173 55.9896 222.704 57.1042 221.766 58C220.85 58.8958 219.62 59.3438 218.079 59.3438C216.537 59.3438 215.298 58.8958 214.36 58C213.443 57.1042 212.985 55.9896 212.985 54.6562Z" fill="#D53F8C"/>
</svg>
